<?xml version="1.0" encoding="UTF-8"?>
<svg width="123px" height="140px" viewBox="0 0 123 140" version="1.1" xmlns="http://www.w3.org/2000/svg" xmlns:xlink="http://www.w3.org/1999/xlink">
    <title>Shape</title>
    <g id="Page-1" stroke="none" stroke-width="1" fill="none" fill-rule="evenodd">
        <g id="Home-Page" transform="translate(-1111.000000, -1271.000000)" fill="#5A5A5A" fill-rule="nonzero">
            <path d="M1230.21875,1314.75 L1114.28125,1314.75 C1112.46918,1314.75 1111,1313.28082 1111,1311.46875 L1111,1301.625 C1111,1294.37617 1116.87617,1288.5 1124.125,1288.5 L1137.25,1288.5 L1137.25,1274.28125 C1137.25,1272.46918 1138.71918,1271 1140.53125,1271 L1151.46875,1271 C1153.28082,1271 1154.75,1272.46918 1154.75,1274.28125 L1154.75,1288.5 L1189.75,1288.5 L1189.75,1274.28125 C1189.75,1272.46918 1191.21918,1271 1193.03125,1271 L1203.96875,1271 C1205.78082,1271 1207.25,1272.46918 1207.25,1274.28125 L1207.25,1288.5 L1220.375,1288.5 C1227.62383,1288.5 1233.5,1294.37617 1233.5,1301.625 L1233.5,1311.46875 C1233.5,1313.28082 1232.03082,1314.75 1230.21875,1314.75 Z M1114.28125,1323.5 L1230.21875,1323.5 C1232.03082,1323.5 1233.5,1324.96918 1233.5,1326.78125 L1233.5,1397.875 C1233.5,1405.12383 1227.62383,1411 1220.375,1411 L1124.125,1411 C1116.87617,1411 1111,1405.12383 1111,1397.875 L1111,1326.78125 C1111,1324.96918 1112.46918,1323.5 1114.28125,1323.5 Z M1205.41687,1349.73551 L1197.71441,1341.97043 C1196.43828,1340.68391 1194.3607,1340.67543 1193.07418,1341.95184 L1164.07969,1370.71309 L1151.50703,1358.03871 C1150.2309,1356.75219 1148.15305,1356.74371 1146.86652,1358.02012 L1139.10172,1365.72285 C1137.8152,1366.99898 1137.80672,1369.07656 1139.08313,1370.36309 L1161.66934,1393.13195 C1162.94547,1394.41848 1165.02305,1394.42695 1166.30957,1393.15055 L1205.39828,1354.37574 C1206.6848,1353.09961 1206.69328,1351.02203 1205.41687,1349.73551 L1205.41687,1349.73551 Z" id="Shape"></path>
        </g>
    </g>
</svg>