<?xml version="1.0" encoding="UTF-8"?>
<svg width="159px" height="159px" viewBox="0 0 140 140" version="1.1" xmlns="http://www.w3.org/2000/svg" xmlns:xlink="http://www.w3.org/1999/xlink">
    <title>Clock</title>
    <g id="Page-1" stroke="none" stroke-width="1" fill="none" fill-rule="evenodd">
        <g id="User-Dashboard" transform="translate(121.000000, -547.000000)" fill="#5A5A5A" fill-rule="nonzero">
            <g id="Clock" transform="translate(-121.000000, 547.000000)">
                <path d="M70,0 C31.3306452,0 0,31.3306452 0,70 C0,108.669355 31.3306452,140 70,140 C108.669355,140 140,108.669355 140,70 C140,31.3306452 108.669355,0 70,0 Z M96.1060484,88.3467742 L96.1060484,88.3467742 L90.4608871,95.4032258 C89.712701,96.3386458 88.6235449,96.9385137 87.4330492,97.0708499 C86.2425534,97.203186 85.04825,96.8571486 84.1129032,96.108871 L84.1129032,96.108871 L65.2016129,82.075 C62.5250334,79.9320214 60.9673125,76.6888464 60.9677418,73.2600806 L60.9677418,29.3548387 C60.9677418,26.8606495 62.9896818,24.8387097 65.483871,24.8387097 L74.516129,24.8387097 C77.0103182,24.8387097 79.0322581,26.8606495 79.0322581,29.3548387 L79.0322581,70 L95.4032258,81.9959677 C96.3390504,82.7446267 96.9389273,83.8345534 97.0707499,85.0257212 C97.2025724,86.2168889 96.8555297,87.4116081 96.1060484,88.3467742 Z" id="Shape"></path>
            </g>
        </g>
    </g>
</svg>