<?xml version="1.0" encoding="UTF-8"?>
<svg width="599px" height="452.42070116861px" viewBox="0 0 599 542" version="1.1" xmlns="http://www.w3.org/2000/svg" xmlns:xlink="http://www.w3.org/1999/xlink">
    <title>Peeps</title>
    <g id="Page-1" stroke="none" stroke-width="1" fill="none" fill-rule="evenodd">
        <g id="Home-Page" transform="translate(-693.000000, -162.000000)">
            <g id="Masthead" transform="translate(-37.000000, 162.000000)">
                <g id="Peeps" transform="translate(730.000000, 0.000000)">
                    <g id="peep-sitting-11">
                        <g id="BODY" transform="translate(-17.606557, 138.101600)">
                            <path d="M178.709144,179.795984 C179.195824,184.860442 178.200728,189.696786 175.830363,193.78556 L175.059153,195.115806 L176.527018,195.627783 C179.198432,196.559681 182.169159,197.012708 185.609176,197.012708 C189.149398,197.012708 192.830907,196.521021 195.789026,196.125664 L197.682927,195.872772 L196.752605,194.231966 C196.004435,192.913254 195.865973,191.315165 195.719252,189.62331 C195.679692,189.168788 195.639044,188.698888 195.585573,188.2339 C192.782652,163.24545 189.239604,137.930845 185.813281,113.449887 C184.911434,107.007979 183.979156,100.3465 183.074701,93.7939521 L180.480233,93.8936991 C179.782275,106.022256 179.104966,118.355861 178.450045,130.283429 C178.162037,135.528373 177.873811,140.773529 177.583411,146.017832 C176.548102,159.276713 176.905667,170.012657 178.709144,179.795984 M179.767928,329.642319 C175.957739,329.642319 172.140159,329.246534 168.421698,328.466073 C156.785502,326.029852 146.21396,320.281902 137.218531,315.085658 C136.759239,314.825931 136.293208,314.566204 135.814788,314.299215 C132.293042,312.333963 127.910313,309.888773 125.16369,306.905759 C122.150578,303.63333 121.631945,300.372648 123.531932,296.643988 L123.832548,296.054049 L123.518455,295.470732 C121.551086,291.818538 121.697372,287.299804 123.874064,284.482538 L125.703408,282.115094 L122.695729,282.433345 C119.663054,282.754372 116.606469,283.189244 113.650306,283.609804 C110.370487,284.076501 106.978508,284.559003 103.638044,284.881953 L102.709678,284.971875 L102.496226,285.864045 C102.377327,286.360644 102.230606,286.662235 101.200079,286.662235 C100.306492,286.662235 99.1055508,286.401227 97.8346182,286.125053 C96.2572011,285.782453 94.4691574,285.393931 92.7450189,285.393931 C91.9866328,285.393931 91.3045417,285.465911 90.6594027,285.614571 L90.2840135,285.700648 L90.016872,285.973617 C89.8460232,286.148121 89.5551889,286.256412 89.2580511,286.256412 C89.0332958,286.256412 88.8248429,286.194043 88.685512,286.085325 L88.2642588,285.756609 L87.7297585,285.815133 C78.4171938,286.83503 70.3870821,288.624924 63.1814355,291.286482 L63.1488307,291.298657 L62.9925454,291.365938 C60.3869922,292.487505 57.6931889,293.647305 55.2397913,293.647305 C53.4463134,293.647305 51.9899685,293.038784 50.6562175,291.732247 L50.2793067,291.363375 L49.7476322,291.358249 C44.3530699,291.308696 41.8881519,285.034457 41.5473237,280.829275 L41.5045029,280.299783 L41.0932485,279.955474 C31.6917815,272.086351 26.141586,261.278854 24.1248744,246.915066 C22.288141,233.831543 23.6984045,220.036975 25.3201641,208.268319 C29.071665,177.769645 32.9844506,150.428915 42.930634,124.498101 L43.3953602,123.285971 L42.1570323,122.842129 C37.8612497,121.302564 34.5781701,119.465681 32.1199904,117.226392 L31.9497937,117.070897 L31.7354719,116.983111 C28.2124215,115.539449 26.4869789,110.210351 26.0420329,108.611621 L26.0063851,108.482612 L25.9442187,108.363856 C25.225393,106.988543 25.0595435,105.075407 25.4894913,103.114854 L25.5355727,102.903613 L25.5088368,102.688954 C25.2766911,100.827507 26.0472497,98.8814786 26.8630202,96.8209652 C27.235801,95.8796692 27.6209716,94.9067618 27.9024591,93.9376989 C28.8701677,91.1682766 29.8367894,88.349942 30.7718933,85.6238787 C32.8698993,79.507911 35.0389837,73.183692 37.34979,67.0316273 L37.6658386,66.190292 L36.9696188,65.6103921 C35.7810675,64.6201838 36.1779758,63.4546171 37.8918981,60.6676804 C38.2968489,60.0093926 38.6798459,59.3865609 38.9711149,58.7729137 C41.168022,54.9865841 43.5225186,51.3519043 45.9704822,47.9686212 L46.0209109,47.8992041 L46.0611234,47.82402 C58.6224239,24.4251144 80.9038483,11.5389494 108.800678,11.5389494 L109.369304,11.5400174 L109.683614,11.3514164 C114.912109,8.21547181 118.644482,2.83468469 121.093967,-5.09808897 L121.172219,-5.35098084 L121.142005,-5.6136979 C121.058102,-6.34482026 120.966157,-7.30341714 120.997675,-8.2336064 C121.077448,-10.5893027 122.003205,-12.6914664 123.537366,-14.001207 C126.4481,-16.4861259 130.866911,-16.6941637 135.143565,-16.6941637 L135.757621,-16.6941637 C141.225435,-16.6775036 145.085619,-15.7306542 147.906146,-13.712859 C151.183139,-11.3684831 152.994224,-7.58407585 153.443082,-2.14348321 C153.577196,-0.515491804 153.572632,1.17102356 153.568502,2.80200525 L153.567415,3.25716789 L153.622408,3.43786597 C154.015404,4.73094652 154.475783,5.97340598 154.990503,7.13106977 L155.520004,8.32205378 L156.724205,7.78508574 C157.503024,7.43800019 158.490295,7.25943803 159.743187,7.23936046 C160.104447,7.23103041 160.456796,7.22718577 160.812187,7.22718577 C163.721182,7.22718577 166.832978,7.49203874 169.842612,7.74813448 C172.110163,7.94122084 174.455095,8.14092852 176.72482,8.22956883 L176.755903,8.23085037 C176.755903,8.23085037 177.069343,8.22892805 177.209978,8.22892805 C182.726482,8.22892805 186.725562,9.09418562 189.794972,10.9522146 C193.100005,12.9524954 195.476455,16.1629833 197.273411,21.0557147 C206.911806,49.1008676 210.874368,79.3092713 214.369596,105.960529 C216.352181,119.897775 216.955151,134.185739 217.538341,148.003161 C218.154136,162.587589 218.790581,177.668616 221.044437,192.410674 L221.222459,193.576027 L222.41927,193.498921 C227.686239,193.159952 233.377939,192.429684 239.403729,191.656484 C248.559139,190.481947 258.02625,189.267254 267.178182,189.267254 C279.974454,189.267254 289.676754,191.778658 296.834798,196.943718 C301.825061,201.633965 304.406704,207.984242 304.30063,215.312981 C304.150649,225.667877 298.659359,237.115933 290.311025,244.478205 L290.279507,244.50704 C279.727093,254.450133 260.465085,263.074088 233.028634,270.139468 C207.799089,276.636482 181.702259,280.167357 168.391484,281.693465 L165.097102,282.071521 L167.771125,283.999608 C168.853384,284.780284 169.840873,285.467406 170.790106,286.100704 L171.402423,286.508877 L172.073211,286.20216 C173.986022,285.327291 175.200874,285.143602 175.883618,285.143602 C176.489414,285.143602 177.220194,285.274747 177.260407,285.900142 C177.286708,286.309596 176.99457,286.917476 176.377905,286.994369 L173.10352,287.401901 L175.777109,289.303716 C177.562979,290.574156 180.227438,292.105177 183.312933,293.87841 C193.407142,299.679331 208.661811,308.445965 206.038216,316.144429 L205.866063,316.650213 L206.109947,317.127161 C206.814861,318.505251 206.875071,319.784662 206.293403,321.038228 C205.047902,323.724777 201.151636,325.764145 197.84269,326.593733 L197.785958,326.608043 L197.73053,326.627267 C191.972968,328.627975 185.929354,329.642319 179.767928,329.642319" id="âœ‹-Skin" fill="#D08B5B"></path>
                            <path d="M153.776022,271.828429 C153.878183,271.670398 153.969477,271.448299 154.019253,271.251828 C154.717513,272.24296 165.888127,282.007445 176.935033,290.2952 C187.195514,297.992953 198.963913,303.808766 203.532691,310.226274 C205.269006,312.665178 206.151428,319.813455 205.817528,321.013992 C205.319951,321.643518 202.333285,323.37099 196.857529,326.196407 C195.001567,326.697113 180.105433,330.726469 173.488628,329.355226 C171.054358,328.985987 153.503097,323.383178 151.285974,322.3816 L132.42536,311.465389 C132.013254,311.285044 131.603354,311.10573 131.195938,310.927576 L130.644521,310.708512 C126.438331,309.029047 121.072253,305.4712 122.17094,300.342716 C123.463267,295.0648 121.144781,293.911325 121.675716,290.434325 C122.135208,287.425198 123.137858,284.361552 124.740418,281.440589 C130.93097,288.385219 138.788712,287.77872 142.746927,279.146996 L142.837696,278.970994 L142.927081,278.79453 C144.2212,276.219282 145.444832,272.947633 148.50927,271.935207 C150.200369,270.794818 152.36315,270.557771 153.776022,271.828429 Z M97.2058768,252.459065 L97.5889526,253.336482 C99.4512767,257.585711 103.404726,266.415583 104.975427,269.899153 C104.625469,269.254214 104.225518,268.634901 103.775573,268.049544 C102.460633,266.34005 104.003311,271.505726 104.015364,276.897809 C104.026544,281.898673 102.477969,287.094281 102.121208,287.180598 C101.682348,287.287376 95.5573897,284.284293 89.81547,285.195865 C85.1795906,285.931844 78.1507045,286.761307 71.1678227,288.662716 C65.4919317,290.208238 59.8464354,292.829796 55.5411545,293.720575 C52.0432894,294.444297 51.3595737,290.664021 49.0741741,290.897806 C47.0151979,291.108428 46.6837201,291.057743 46.1738725,290.633181 C43.315524,288.275735 40.6136782,278.959231 40.8832107,275.459261 C43.2556163,256.908 79.8753729,250.927868 97.2058768,252.459065 Z" id="ðŸ‘Ÿ-Shoes" fill="#FFFFFF"></path>
                            <path d="M158.578545,6.0704 L162.956963,6.22447672 L163.34248,6.24009499 C164.802355,6.30283265 166.318244,6.40872903 168.454697,6.58585156 L169.037525,6.63461936 L173.255817,7.30389078 C174.542296,7.50685174 175.749321,7.69605739 176.91457,7.87730129 L179.206551,8.23181625 L181.922251,8.64681124 L182.221259,8.69418421 C186.287881,9.34929812 189.07292,10.3354941 191.374167,12.3346636 L191.475381,12.4235216 L191.51961,12.4627604 L191.56087,12.5050952 C195.075627,16.1114289 197.727731,21.7819577 199.888466,29.5219865 L200.02937,30.0310058 L200.156458,30.4978476 C201.061254,33.8489433 203.368956,45.4946187 207.079563,65.4348739 L205.170914,65.5786673 C204.937373,65.5962618 204.706113,65.6170065 204.477239,65.6409034 C197.618825,66.3569979 189.583392,70.2857893 184.315258,75.3517694 C183.999625,75.6552913 183.683779,75.9729117 183.36858,76.3035781 L183.179545,76.5035351 L181.481296,78.314463 C177.569783,138.287313 175.908534,170.41135 176.497547,174.686572 L176.543852,175.017236 L176.597033,175.258251 C178.740459,185.084704 177.775904,192.576169 173.582054,197.339532 L173.453979,197.483041 L173.321251,197.627755 C168.880715,202.403088 161.339348,203.982686 150.980887,202.359252 C150.838445,202.336928 150.697824,202.314369 150.559064,202.291574 L148.842747,202.003218 L149.033511,200.183027 L149.064484,199.880797 C150.422899,186.518974 150.176822,174.828186 147.891929,164.476724 C145.250214,152.508713 139.93774,142.778487 131.492896,135.494728 L131.236033,135.274757 L131.199576,135.243975 L130.553497,136.11678 L128.803318,134.630494 C117.67048,125.195034 98.2459893,109.725627 70.5298456,88.2222721 L77.1965693,78.6864918 L77.185108,78.6750192 C77.1190633,78.6103999 77.0275513,78.5323452 76.9085787,78.4405827 L76.7998306,78.3585656 L76.7464315,78.3194573 C76.1230618,77.8667763 49.5330266,65.9828502 41.6258357,64.66381 L41.2433263,64.6008429 L40.8610084,64.5395918 L40.5519633,64.4912917 L40.0659831,64.4172459 L38.0379839,64.1125152 L38.7931434,62.2106777 C38.8942235,61.9561115 38.9965703,61.7001926 39.1002279,61.4427858 C40.8337554,57.1380182 42.5667969,56.3646058 44.4439797,52.8167185 L44.5987891,52.5248022 L44.9067823,51.9035023 C49.0849292,43.5776987 54.8998377,31.4993614 67.3831208,23.4144 C84.1202186,12.5744 103.476951,10.9466184 103.588474,11.0070509 C105.469712,17.8048878 108.39944,23.6028042 112.377656,28.4008 C116.25591,33.0782339 123.59516,37.1198868 126.419164,38.0790542 L126.636799,38.1522168 L126.859664,38.2255805 C134.383243,40.6757769 142.593369,40.6675044 149.49113,38.1287902 L149.660377,38.065543 L149.766278,38.0193257 C153.785487,36.2320667 156.645404,33.1014835 158.479399,28.7868092 L158.54296,28.6358172 L158.605689,28.4838662 C160.664788,23.4470225 161.284122,17.0491874 160.699465,10.1921381 L160.678582,9.95275389 L160.647086,9.61022247 L160.645348,9.58973016 L158.578545,6.0704 Z M42.3612348,122.804858 L42.9934773,123.007333 L43.4243645,123.143091 C45.6398056,123.837281 48.5953272,125.081143 52.3266604,126.09808 L56.2553352,127.167468 C57.328686,127.461622 58.1568169,127.692055 58.969765,127.923245 L60.1866355,128.272941 L60.7244486,128.430943 L62.8231024,129.058622 L61.7340954,130.854623 L61.3001317,131.572384 C49.2435411,151.571208 39.2245295,173.015286 31.3639459,195.516285 C30.7640939,197.233367 30.1746357,198.962845 29.596145,200.702634 L29.2503712,201.747727 L26.0837887,201.039247 C26.3651971,198.788685 26.6523022,196.599412 26.9476438,194.457168 L27.0886153,193.442536 C27.5398569,190.219455 28.0372373,186.898458 28.5875347,183.418358 L28.76093,182.325781 L28.8684869,181.548692 L28.9395794,181.043583 C30.081768,172.986449 31.4597837,166.055715 34.4864504,152.342191 L35.9279395,145.823574 C37.0477972,140.732914 39.192229,133.060009 42.3612348,122.804858 Z" id="ðŸ‘•-Top" fill="#FFC107"></path>
                            <path d="M198.885302,195.547232 C199.561307,191.869796 198.279072,188.072768 198.057142,184.369705 C194.701028,157.956872 190.995174,131.56155 186.084683,105.379571 C184.880481,99.1138351 183.663455,92.8737255 182.267973,86.6421583 C182.478817,82.8686218 182.663577,79.0950853 182.785301,75.3194133 C189.599691,71.0461556 197.28354,68.2806039 205.230184,66.8860825 C207.377749,78.819598 209.523141,90.7445711 211.012308,102.784865 C215.653049,132.58662 213.005544,162.911587 217.507171,192.679173 C211.26206,193.377502 205.065204,194.411113 198.885302,195.547232 M210.871673,218.764625 C206.175504,220.010084 201.474988,221.201727 196.741215,222.300901 C188.317455,224.256861 179.895869,226.220723 171.493629,228.264242 C167.299791,229.284186 163.096605,230.273591 158.911461,231.326636 C156.925398,231.826571 154.95216,232.381817 153.0087,233.025261 C152.038818,233.34645 151.090889,233.714834 150.143179,234.093256 C149.312845,234.424481 148.529461,234.881278 147.616529,234.816143 C147.562188,234.812299 147.528279,234.759764 147.555015,234.71086 C148.032565,233.835066 149.016576,233.419913 149.885384,232.977211 C150.843311,232.489022 151.841451,232.070025 152.84046,231.670034 C155.059538,230.781641 157.370779,230.129227 159.675934,229.496247 C168.054047,227.196461 176.504107,225.136285 184.945474,223.074828 C193.427052,221.003761 201.909066,219.020252 210.503239,217.451682 C211.369004,217.293864 211.743523,218.533344 210.871673,218.764625 M169.271725,289.575987 C169.647549,289.475616 170.025764,289.383573 170.402022,289.296229 C176.427378,294.299848 204.804149,307.292602 202.645933,315.053231 C201.882982,316.018505 200.057117,316.238254 198.902692,316.550046 C196.892066,317.092478 194.861878,317.562515 192.812344,317.934103 C186.186845,319.136424 179.324852,319.345709 172.708047,317.974465 C170.273777,317.605226 168.076218,316.569479 165.859096,315.567901 C158.694749,312.424355 150.804403,308.951719 143.674616,305.834014 C134.617021,302.252678 118.72982,295.194435 125.264026,283.284624 C131.454579,290.229255 139.31232,289.622969 143.270535,280.991031 C144.635587,278.370698 145.826529,274.83848 149.032661,273.779242 C150.723978,272.638852 152.886758,272.401805 154.29963,273.672464 C154.401792,273.514432 154.493085,273.292334 154.542862,273.095862 C156.136146,275.357421 157.509893,277.738572 159.377057,279.805795 C158.736048,279.839964 152.062945,284.76649 154.032054,284.768839 C156.401549,283.551569 158.755611,282.537178 161.313778,281.88156 C163.168118,283.741421 165.207001,285.471439 167.319788,287.07076 C165.267863,288.422571 163.424392,290.07763 161.94218,291.873851 C161.813935,292.031882 161.970438,292.236896 162.161719,292.15126 C164.463613,291.128326 166.830717,290.229255 169.271725,289.575987 M199.815842,323.133981 C176.768423,333.459632 152.369213,321.961771 132.715078,309.70365 C128.178889,307.177282 122.212223,303.595946 123.129285,297.648408 C126.470401,302.523894 131.978211,305.300123 137.264743,307.706901 C146.146273,311.711078 155.086274,315.587121 163.989758,319.54218 C164.830743,322.324603 168.851993,322.431381 171.28235,323.048772 C182.100602,325.141622 193.729624,324.101603 203.910996,319.928717 C203.32172,321.669199 201.393911,322.467686 199.815842,323.133981 M107.861574,282.927985 C107.292296,283.000594 106.722582,283.066583 106.153304,283.130864 C106.211775,282.379146 105.757699,281.627429 105.027353,281.394653 C105.355574,279.80131 105.477081,278.154793 105.301233,276.538387 C106.253291,278.992146 109.326614,278.246835 111.278768,277.539751 C114.06756,276.783763 116.838962,275.970327 119.595149,275.103076 C120.681974,277.117124 121.833791,279.10106 123.249053,280.924829 C118.097288,281.381839 112.993777,282.289453 107.861574,282.927985 M105.594676,275.209854 C105.457736,275.498368 105.262107,275.803754 105.25776,276.149714 C105.118647,274.955936 104.84694,273.776893 104.433947,272.647181 C104.820639,273.501405 105.207766,274.35563 105.594676,275.209854 M102.342897,268.809791 C99.8082046,265.51462 95.1242083,262.821678 90.7942993,263.739755 C90.5158549,263.799765 90.5093339,264.245883 90.7942993,264.301621 C96.6107668,265.089644 101.718842,269.691564 101.920991,275.641451 C102.379631,278.334393 100.501816,280.978218 101.134348,283.562247 C101.008276,283.570789 100.882205,283.577196 100.758307,283.585738 C100.71266,283.758719 100.671143,283.912265 100.616802,284.047019 C101.245204,284.151448 101.429747,285.159647 100.688532,285.339034 C100.249673,285.445812 99.7908154,285.501337 99.3236982,285.524828 C96.9522471,284.886295 94.450377,284.738728 92.1830437,283.79481 C89.9400553,282.806258 90.5008567,280.027893 89.7094311,278.103753 C89.1292842,275.884691 88.4617565,273.674599 87.6207717,271.545445 C87.5599095,271.374386 87.3273291,271.41304 87.3077662,271.58602 C86.71436,275.833651 86.7339229,280.153892 86.8773837,284.435478 C86.0992174,284.514707 85.3253983,284.602265 84.5491882,284.698366 C84.5993995,283.502238 81.0020103,268.931518 79.1065883,272.670885 C80.0608203,276.781841 80.1760237,281.076454 80.2781852,285.307 C74.6506078,286.231698 69.1054117,287.609135 63.7106321,289.484158 C59.9089199,290.63309 55.3875124,294.032903 51.6968737,290.959617 C48.8385252,288.602171 47.8755987,284.488867 48.1451311,280.988896 C51.8618537,260.28036 81.2193752,257.860769 98.5496618,259.391967 C100.186637,263.159096 101.853826,266.913413 103.542751,270.659187 C103.192794,270.014247 102.792842,269.394935 102.342897,268.809791 M43.2348579,280.585275 C42.9175052,275.882769 43.7106697,270.029196 47.2039411,266.524527 C55.1986223,259.782774 66.392915,257.661948 76.3830061,255.221216 C81.0365713,254.30506 85.7536072,253.696425 90.4897711,253.393175 C92.1702192,253.260771 94.3047426,253.640687 95.4913376,252.26987 C96.1023503,253.71351 96.721623,255.155013 97.3413303,256.596517 C77.4524414,253.997539 35.9572635,263.026478 47.5775914,290.201493 C45.1170206,287.542719 43.4867838,284.305422 43.2348579,280.585275 M29.3495877,193.539805 C29.9060419,189.503594 30.5144463,185.471655 31.1578464,181.446122 C33.7881791,162.191903 39.2244754,143.452355 42.4653862,124.328405 C48.075357,126.147903 53.8205288,127.533882 59.4850583,129.171858 C47.2104621,149.532297 37.170377,171.152718 29.3495877,193.539805 M75.4402945,174.594174 C74.3610777,169.477156 73.1507899,164.262757 72.6006393,159.060957 C72.5758597,158.827113 72.9364681,158.802341 73.0008081,159.007782 C73.9022204,161.888226 74.5164936,164.874595 75.2768361,167.794975 C76.0400043,170.725605 76.7494833,173.669476 77.5009138,176.603097 C77.7408846,177.539967 77.9815076,178.476197 78.2223479,179.412641 C78.3666782,179.418834 78.5105738,179.423746 78.6538172,179.426949 C79.2041852,179.439762 79.3691651,180.128908 78.9263928,180.415714 C78.7970607,180.499428 78.6675112,180.572891 78.537527,180.638453 C80.8385519,189.565525 83.196309,198.472524 85.7694748,207.331258 C88.7678063,217.65456 92.1434833,227.85336 94.8414165,238.259949 C94.9038002,238.50084 94.7920747,238.668909 94.6286163,238.741731 C96.0319241,243.476911 97.2078682,248.274663 98.4907559,253.046147 C98.7578974,254.03961 97.2867717,254.683481 96.7837893,253.753231 C96.0093182,252.320483 95.838252,250.362601 95.4591676,248.788265 C95.0320455,247.014895 94.6262253,245.237468 94.2210571,243.459186 C93.5765701,240.630635 92.9983795,237.767702 92.5216982,234.89943 C90.7453922,230.44828 89.1547158,225.943527 87.7470607,221.353993 C84.5946175,211.07511 81.6867098,200.725968 79.0983285,190.295887 C78.3340735,187.217049 77.585034,184.133939 76.8703382,181.043355 C73.6163855,181.093327 70.2163637,177.421657 66.9465434,179.376336 C66.7952574,179.466884 66.6420152,179.261016 66.7611311,179.14057 C68.0646685,177.823143 69.8664062,177.708249 71.6168458,178.03435 C72.7543163,178.246197 73.8448361,178.64811 74.9583965,178.950932 C75.4489891,179.084405 75.9526236,179.182214 76.4616922,179.255036 C76.1106478,177.703551 75.7685155,176.150358 75.4402945,174.594174 M145.544172,271.479242 C143.88133,272.564107 142.524973,274.1677 141.568568,275.891312 C135.43866,291.886664 128.883152,283.318793 120.738271,274.735973 C127.630913,272.141266 136.760239,270.197906 142.04677,265.040526 C142.961877,267.321305 144.081306,269.493171 145.544172,271.479242 M143.351177,232.462755 C142.818851,229.831103 142.380208,227.183221 141.981126,224.529145 C141.598129,221.98377 140.999724,219.257085 141.097321,216.680531 C141.101016,216.577811 141.246216,216.559658 141.277516,216.656613 C142.106111,219.225052 142.354342,222.065348 142.87993,224.710881 C143.388347,227.268216 143.946974,229.81594 144.509732,232.36217 C145.665244,237.589383 147.299176,242.736512 148.288186,247.995118 C148.39426,248.558479 147.631092,248.756232 147.423726,248.229389 C145.443315,243.200783 144.417135,237.735241 143.351177,232.462755 M31.2426187,113.885511 C28.5649004,111.00891 26.4605908,107.335745 26.8672805,103.438346 C28.4757808,101.298514 29.0083248,98.5073357 29.9451676,96.034356 C33.6077662,85.6854269 37.0073534,75.2572685 40.9936084,65.0196021 C49.4732307,67.6207156 57.8154784,70.7407703 65.6843054,74.8389121 C67.1317383,75.5756807 68.5643904,76.3402115 69.9794359,77.1325047 C71.4618646,77.9611024 73.0790595,79.4004706 74.8568871,78.9883073 C72.9138622,81.7325033 68.9121743,84.5877485 68.235952,87.7590567 C68.0905349,88.7627704 68.8034918,89.6938751 69.8990109,89.4696412 C87.046711,101.618848 104.755647,113.511788 120.964331,127.044625 C133.101987,136.629237 142.420421,144.402679 146.583176,159.953835 C149.389357,170.027277 149.397834,180.555593 148.985058,190.913064 C148.904633,192.926685 148.90246,194.987715 148.739436,197.014362 C148.982885,198.530611 148.519897,201.616497 146.811409,201.672021 C146.850318,202.039338 146.972259,202.378892 147.165714,202.67787 C147.111373,202.750266 147.054858,202.818818 146.996169,202.889291 C146.911397,202.474992 146.828798,202.062829 146.75033,201.64853 C145.420274,195.771466 145.242035,188.952619 145.463529,182.695425 C145.556996,180.901554 142.798853,180.944265 142.644524,182.695425 C142.229357,187.425693 141.813973,192.155961 141.399023,196.884093 C140.90104,199.948623 141.685945,203.957072 139.229721,206.286969 C136.732199,203.984834 137.557968,199.444631 137.67991,196.474065 C137.875321,191.628477 138.086382,186.785025 138.266795,181.939437 C138.32331,180.403968 135.773402,180.008889 135.484307,181.569985 C134.665058,186.020494 133.778209,190.45819 132.82376,194.883072 C132.247961,196.593657 131.852139,204.268863 128.974445,202.936273 C127.259219,201.768121 128.496242,194.919377 128.270183,192.651411 C128.376692,188.162462 128.43951,183.679919 128.770122,179.201647 C128.904888,177.394963 125.955029,177.010562 125.550948,178.774535 C124.894506,181.62978 124.266321,184.485025 123.696825,187.359491 C122.446977,192.205079 122.90127,198.774065 118.388774,201.994491 C116.621597,189.407494 119.164549,176.908055 119.521245,164.365904 C119.30801,160.301932 118.608313,156.278535 117.990996,152.26368 C117.308471,147.823848 116.910693,142.991073 118.508325,138.709273 C118.071421,136.79154 116.354239,141.978817 116.193171,142.410201 C114.900067,139.868883 111.75045,139.672411 109.259448,138.880118 C103.723164,137.092654 98.0518962,135.745115 92.4506199,134.156257 C77.5956849,130.041031 62.723578,125.989871 47.8473412,121.947254 C41.9045847,120.307143 35.6488227,118.365918 31.2426187,113.885511 M179.996509,180.837487 C177.946758,169.755847 178.003273,158.52728 178.879254,147.324127 C179.84218,129.949202 180.776632,112.570006 181.776728,95.197216 C186.117505,126.641218 190.745204,158.048915 194.283687,189.593288 C194.535831,191.788644 194.496922,194.112135 195.607657,196.070444 C189.469272,196.8905 182.926371,197.716962 176.957748,195.63479 C179.576995,191.118078 180.500796,185.975647 179.996509,180.837487 M46.7646466,52.3493182 C57.1114335,31.1624165 78.2086539,16.1216597 101.869041,12.8414379 C101.895125,12.8670646 101.923383,12.8926913 101.949466,12.9204536 C101.871215,12.9909271 101.799485,13.0678073 101.734275,13.1468231 C102.370937,12.6791352 103.244744,13.2664145 102.962387,13.913276 C103.312344,14.7100538 103.570791,15.5301093 103.894665,16.3330803 C104.031822,16.3202669 104.170936,16.3074535 104.309832,16.2860979 C105.714009,19.0665985 106.474786,22.2720757 107.941999,25.044034 C115.971676,38.92091 135.786661,44.5545202 150.650073,38.9527298 C162.444293,33.8553591 164.118003,19.3399503 163.061392,8.18164354 C163.007051,7.42992604 162.624706,6.89817132 162.113681,6.58424384 C168.545726,7.61144873 174.977554,8.64719586 181.415902,9.62314728 C184.517482,10.0929707 187.704269,10.7720792 190.099413,12.8969624 C199.526746,22.5731898 201.208933,48.6120862 204.380505,62.149408 C196.792296,62.9417012 188.310717,67.2555346 182.87203,72.4855237 C183.128738,66.5401216 182.761174,60.6246174 182.074301,54.7219265 C182.063432,54.4336258 181.5811,54.33539 181.535453,54.651453 C180.176922,60.6352952 179.131397,66.6703909 178.701015,72.8013732 C176.911884,97.4737241 175.849187,122.194979 174.316764,146.884201 C173.792915,155.971014 173.138647,165.136842 174.436315,174.191621 C178.613851,192.832934 171.247572,201.981678 151.47606,198.882978 C153.877725,175.259402 152.136849,148.229605 132.302302,131.849638 C131.69781,131.31169 130.972029,131.347994 130.422095,131.668328 C114.295793,118.000737 97.2761208,105.341131 79.1609296,94.3171513 C79.2913485,92.0387212 73.5768251,90.024887 71.9768021,88.4531141 C77.9173849,82.3155115 82.440966,74.853861 86.3859217,67.3494993 C86.7339229,66.533715 91.2701111,58.3246181 89.8268081,58.8414239 C85.5164621,65.2118026 81.2302435,71.6227571 76.1547729,77.4528389 C76.4308264,74.7641674 69.4468919,72.9615403 67.297153,71.7335927 C58.9914226,68.2442994 50.307912,65.5129168 41.3589988,64.0989618 C42.9696727,60.0992694 44.7303285,56.1591592 46.7646466,52.3493182 M157.290571,9.13623935 C157.018865,8.6728226 156.760201,8.19872803 156.512405,7.71822679 C157.351434,7.7502602 158.168726,7.78015806 158.994495,7.91683397 C158.95776,9.24301741 159.031447,10.5798787 159.04688,11.9167399 C158.633669,10.9386529 157.825289,10.0459884 157.290571,9.13623935 M222.11096,192.153825 C217.733231,163.522358 219.51997,134.423202 215.439814,105.744752 C211.681792,77.0940646 207.71923,48.044027 198.281245,20.5935246 C194.386066,9.97978599 187.647754,6.82769781 176.553449,6.91312025 C170.923481,6.69315746 164.970073,5.79408624 159.498999,5.9222199 C158.299145,5.94143995 157.044949,6.09947147 155.962472,6.58210828 C154.440917,3.1609394 153.614713,-0.512225683 153.19759,-4.21315306 C153.171289,-4.44806479 152.871543,-4.49077601 152.782206,-4.26654209 C151.495406,-1.0439804 151.358683,2.47328873 152.058381,5.84747526 C152.564841,8.26493043 155.57991,17.7788551 159.081658,14.0565721 C159.359668,21.8620479 157.640311,31.1837721 149.973851,35.2349315 C136.577869,41.0607422 118.060336,35.7560084 110.300626,23.3911097 C108.800808,20.9202655 107.50727,18.2911762 105.846819,15.9187814 C117.417153,12.6513729 123.911799,-1.17638518 121.18626,-11.706837 C119.501682,-3.51696015 116.430099,5.63391916 108.781245,10.2211044 C80.9278889,10.1591731 57.7700492,22.8123726 44.6846818,47.1833959 C42.1241233,50.7220206 39.7570194,54.3994568 37.5875003,58.1409599 C36.4202508,60.6438375 33.0013182,64.124802 35.9029223,66.5422572 C32.5513728,75.4646315 29.5778209,84.5108683 26.4347243,93.5037161 C25.5715683,96.4999083 23.597895,99.6434542 23.9915428,102.793407 C23.5655076,104.734632 23.5850704,107.03036 24.5610389,108.89684 C25.4870134,112.224045 27.5648045,116.700181 31.0102556,118.111787 C33.9338136,120.774831 37.6311906,122.609278 41.4872441,123.990986 C31.203493,150.796549 27.2889684,179.70564 23.804609,208.027451 C20.3895889,232.804231 18.6269769,262.943405 40.0241609,280.849871 C40.4395452,285.973296 43.4867838,292.501706 49.5123564,292.55723 C53.6855452,296.644481 58.771884,294.402142 63.4171894,292.40347 C71.2575416,289.507436 79.480456,287.901707 87.6512028,287.006907 C88.5271834,287.690287 89.9530971,287.576888 90.7332198,286.780538 C95.6828361,285.642284 102.542655,290.250824 103.542751,286.075802 C109.924367,285.458625 116.236644,284.301151 122.612174,283.6261 C119.925327,287.103007 120.118999,292.230276 122.142449,295.986728 C116.988727,306.098823 128.994008,311.954532 136.334203,316.103927 C146.243869,321.827017 156.59283,327.257963 167.926019,329.630357 C177.890026,331.721072 188.328106,331.087024 197.941939,327.747006 C202.993499,326.480405 210.049164,322.322681 207.051702,316.464837 C210.851458,305.317208 184.167742,293.765958 176.318695,288.183388 C179.526784,287.784251 179.644161,281.142656 171.29974,284.958904 C170.291166,284.285989 169.299982,283.591931 168.319667,282.885274 C202.071872,279.015637 266.531652,268.369865 290.95912,245.357059 C304.379012,233.523915 312.121767,209.588546 297.45181,195.893193 C277.630304,181.516596 245.073171,190.676017 222.11096,192.153825 Z" id="ðŸ–-Ink" fill="#000000"></path>
                        </g>
                        <g id="Head" transform="translate(74.990893, 39.024000)">
                            <g id="HEAD">
                                <path d="M52.5002599,16.3162847 C64.8163412,16.3162847 80.7141506,24.0382294 82.069821,31.9469623 C83.6674429,41.2671969 92.2224033,77.0299992 90.2905863,88.4985344 C88.3587692,99.9670696 77.9486007,108.22304 61.2905213,108.22304 C44.6324419,108.22304 32.1990192,99.1432099 29.3442047,96.0255898 C27.440995,93.9471764 24.725862,89.1977206 21.1988055,81.7772224 C15.2527429,80.9868305 12.2654162,78.169345 12.2368255,73.3247661 C12.2090394,68.4801871 14.1421892,65.1765985 18.0362751,63.414 C16.6478428,44.295239 17.7020196,32.2470552 21.1988055,27.2694485 C26.4439844,19.8030384 40.1841787,16.3162847 52.5002599,16.3162847 Z" id="âœ‹-Skin" fill="#D08B5B"></path>
                                <path d="M81.3161009,30.6708478 C81.3072077,30.5041286 81.5501428,30.4846166 81.5956931,30.6320406 C84.2527957,39.4059366 85.8906554,46.2435918 87.6148438,55.2388406 L88.1240241,57.8849515 C89.4847772,64.9424606 90.8595456,72.0102477 92.0204283,79.1020166 L92.0885733,79.5254242 C92.6700952,83.1963634 93.0053437,86.9030426 92.2763777,90.5815766 C91.5952919,94.0200246 89.7342355,97.1722966 87.317899,99.6828406 C82.6479057,104.535041 76.1578514,107.565689 69.6291878,108.920689 C66.3278735,109.605777 62.9224441,109.870273 59.5582269,109.631793 C57.8813241,109.514504 56.2070241,109.278192 54.5650432,108.929361 L54.3837698,108.890622 C52.7286875,108.53348 51.2597446,108.107453 50.3807032,106.550848 C50.1596756,106.158657 50.2486072,105.486577 50.7127867,105.284953 C51.5890883,104.907504 52.2333001,104.749457 53.1896401,104.857857 C54.1028158,104.961704 54.9945177,105.237257 55.896848,105.408529 C57.6212534,105.735897 59.3738565,105.900448 61.1286287,105.939689 C64.5752703,106.015569 68.0305881,105.584137 71.3253953,104.556505 C76.9864336,102.789585 82.7390064,99.4096726 86.0468279,94.3538966 C89.9378672,88.4064438 88.3885185,81.1883268 87.3574384,74.6201396 L87.3263584,74.4213046 C86.2824967,67.7078216 85.2504258,60.9943386 84.2486003,54.2764984 L83.8211521,51.3971446 C82.6977942,43.7896326 81.6371222,38.3587926 81.3161009,30.6708478 Z M23.8380491,12.0500909 C26.663571,10.1886794 30.1746176,9.73127402 33.4933032,9.75696051 L33.9088804,9.76219751 C38.1583658,9.826936 59.5489695,10.3357269 66.7107457,10.4922879 L68.414469,10.5281549 C70.6694605,10.570681 75.2174496,10.6150841 77.5606334,10.6578869 L77.6958908,10.6604029 C78.8454944,10.6820829 79.9950979,10.6907549 81.1447015,10.7276109 L81.3132109,10.7336774 C82.1743712,10.7704242 82.8909289,10.8992179 83.5653761,11.5059229 C83.9083593,11.8134175 84.0421747,12.2823902 84.0107309,12.7290874 L84.005696,12.7872109 L85.7127488,12.9368029 C86.8718549,13.0392151 87.4847659,14.0783127 87.0242933,15.1297987 L87.0011724,15.1806829 C86.1834355,16.9237549 85.5587453,21.9968749 85.1205945,23.8721949 C84.8906738,24.8586349 84.7060865,25.8602509 84.5976334,26.8683709 C84.5110877,27.6620757 84.5024115,28.4575149 84.0599226,29.1556109 C83.1161631,30.6450269 80.4614465,30.6320189 80.4137272,28.5225549 C80.4115581,28.4553469 80.4137272,28.3903069 80.4202343,28.3274349 C73.7395194,28.0347549 64.6186082,28.0629389 57.9465695,28.4618509 C51.7148506,28.8347469 45.5113296,29.6802669 39.4054164,30.9745629 C37.8588742,31.3019309 36.3166702,31.6596509 34.7853115,32.0477229 C33.5294239,32.3642509 31.9872199,32.5528669 30.8636451,33.2314509 C29.6055884,33.9945869 29.6294481,35.3625949 29.7660991,36.6655629 C29.9127711,38.0465789 30.1573521,37.3350369 30.503925,38.593581 L30.5252712,38.6731309 C30.8831667,40.0389709 31.3256556,41.3896349 31.9113027,42.6730909 C32.2453384,43.4058749 32.783483,44.1104749 32.5793742,44.9538269 C32.4644138,45.4286189 32.088949,45.9359309 31.7442848,46.2676349 C30.1736661,47.7743949 27.5189495,46.8139709 26.4517703,48.8779069 C25.3349113,51.0361092 25.3071739,53.9596596 25.2123896,56.347739 L25.206728,56.4875869 C25.1375349,58.1330989 25.1568396,59.7829469 25.2652927,61.4241229 C25.3629006,62.9198261 25.7617913,64.4007869 25.2501093,65.8381709 C24.8768135,66.8831469 23.6580168,66.9807069 23.0203122,66.1308509 C22.9471063,66.0332909 22.8800009,65.9332919 22.8171659,65.8326831 L22.7556865,65.7319389 L22.7515653,65.7341069 C22.8120821,65.8294989 22.8684778,65.9272757 22.9227044,66.0267869 C22.9812691,66.1373549 22.8359418,66.2587629 22.7470102,66.1633709 C21.2460184,64.5308669 19.0530954,64.8560669 17.3547189,65.9986029 C15.6346517,67.1606509 14.9557348,69.3676749 14.8668032,71.3472757 C14.7670263,73.5430261 14.962242,76.1168757 15.8775867,78.1459069 C16.26368,79.0044349 16.8144052,79.7935869 17.7277977,80.1209549 C18.1423057,80.2683789 18.5368584,80.2488669 18.968502,80.2835549 C19.4172811,80.3180261 19.9575948,80.5437149 20.3933596,80.5133629 C20.9599095,80.4730664 21.4685451,81.1195166 21.307633,81.6611462 L21.2959069,81.6970909 C21.2874475,81.7231069 21.2785544,81.7491229 21.270095,81.7729709 C21.2915687,81.7924829 21.3132594,81.8163309 21.3284428,81.8510189 C22.9769309,85.2179229 25.2370949,88.2140989 27.7358558,90.9934749 C28.9876222,92.3831629 30.3756059,93.6601149 31.8267092,94.8416749 C32.5425001,95.4248669 33.2973341,96.0082757 34.0933804,96.4785149 C34.3580061,96.6322261 34.6007243,96.7365069 34.8983197,96.8212757 C35.0369229,96.8600829 35.1952645,96.8795949 35.3297464,96.9251229 L35.4693994,96.9729229 C35.478978,96.9760275 35.4880881,96.9788893 35.4967643,96.9814909 C35.895872,97.0270189 36.2320768,97.2915149 36.3643896,97.7056029 C36.7092707,98.7852669 36.0824114,99.7391869 35.0108941,100.036203 C33.8499973,100.360696 32.7559406,99.7909658 31.8357397,99.1368469 L31.7746517,99.0931229 C29.8984119,97.7426757 28.1696685,96.2270269 26.6730148,94.4579389 C23.7122434,90.9652909 21.8574774,86.9219709 20.9989621,82.4493869 C20.786177,82.9068349 20.4998606,83.3057469 20.0031451,83.5832509 C19.2309586,84.0168509 18.3091067,84.0168509 17.463172,83.8715949 C15.7604573,83.5832509 14.309354,82.5447789 13.3397827,81.1399149 C12.3331204,79.6830189 11.9580894,77.9139309 11.7303377,76.1903709 C11.5047551,74.4644261 11.3941329,72.7324109 11.6197155,71.0023469 C11.9431228,68.5178189 12.9862254,66.0614749 15.0142996,64.6999709 C13.4959552,61.3937709 13.2291605,57.6864909 13.3376136,54.0659309 C13.4699265,49.6085229 14.239944,45.1012509 14.8320982,40.6850349 L16.5155083,28.1301469 L16.5155083,28.1301469 L16.5843805,27.6240128 C16.9906125,24.6704512 17.4851558,21.7012652 18.5910849,18.9183149 C19.6821238,16.1757949 21.3392881,13.6956029 23.8380491,12.0500909 Z M16.7539317,71.4445755 C19.5346709,70.0960795 22.5388235,71.3383435 24.0354772,73.9551195 C25.336785,76.2302187 21.4676941,77.7339949 20.8221398,75.3888692 L20.8035729,75.3166235 C20.3784365,73.5410315 18.6473071,72.0060875 16.8406942,71.7676075 C16.6910289,71.7461443 16.5801897,71.5293443 16.7539317,71.4445755 Z" id="ðŸ–-Ink" fill="#000000"></path>
                            </g>
                            <g id="FACE" transform="translate(34.561020, 40.324800)">
                                <path d="M20.3957625,48.7274207 C21.5552798,46.4148862 27.4524673,45.7783451 38.0873248,46.8177975 L39.4348228,57.8438461 C34.3034516,59.4889503 30.2105158,60.1391461 27.1560155,59.7944333 C22.5742651,59.2773642 18.6564866,52.1962224 20.3957625,48.7274207 Z" id="teeth" fill="#FFFFFF"></path>
                                <path d="M21.5197757,54.5188284 C20.9688562,53.3429317 32.3730371,50.1363939 35.90393,52.3276111 C38.2578585,53.7884226 39.0668101,55.5150696 38.3307848,57.507552 C28.430195,59.7599118 22.8265253,58.7636706 21.5197757,54.5188284 Z" id="tongue" fill="#FF8181"></path>
                                <path d="M19.4065344,46.674807 C22.0683851,43.589743 26.5515362,43.3748942 30.2652157,44.1462686 C32.6484045,44.6414398 34.9687749,45.466147 37.3893505,45.771835 C38.5198653,45.9147062 39.6625526,45.9574158 40.8013274,45.9363862 C41.9198872,45.9157902 43.0401859,45.6909686 44.1548332,45.732811 C44.3261167,45.7390982 44.3908914,45.9634862 44.2424312,46.054759 C42.7132691,46.9915518 40.6533019,47.2920366 38.8469995,47.4752326 C38.852651,47.6085646 38.8606935,47.7386446 38.8791695,47.8489958 C38.9285114,48.1431934 38.9735059,48.4354398 39.0098058,48.7315886 C39.0917524,49.3995494 39.1834804,50.0653422 39.274991,50.7320022 C39.455381,52.0440301 39.5120862,53.3975035 39.8293447,54.6867964 L39.8846996,54.9010662 C39.9581689,55.1720662 39.974906,55.4163998 39.9503438,55.6366686 L40.0238131,55.6034982 L40.2558601,55.4913861 L40.4080056,55.4197871 C40.9631506,55.1631027 41.4928537,54.9761593 42.145512,55.0385174 C42.6424081,55.0857798 43.0595314,55.423771 43.0625745,55.9529798 C43.0749643,58.3280238 39.8657888,59.0918102 38.0301422,59.5464398 L37.4918225,59.6787153 C35.155264,60.2471241 32.769601,60.7454057 30.3665077,60.8645838 C26.5100196,61.0555846 22.1764154,59.9945654 19.6536783,56.8745966 C17.2998338,53.963623 16.8683644,49.6163494 19.4065344,46.674807 Z M36.9198423,56.6536774 C36.5151843,53.0779135 32.1095133,52.8812975 30.8421195,55.148865 C30.2797109,51.9881178 21.95992,54.8757006 22.6104931,55.503987 C25.0762806,57.8857518 28.8182175,58.100167 32.0350007,57.6596294 C33.67328,57.4352414 35.3128635,57.0699334 36.9198423,56.6536774 Z M32.0304222,47.2815094 L30.9227981,47.1224903 L30.4865518,47.0625631 C27.7406553,46.695799 24.6526529,46.5063611 22.3950845,48.2622166 C21.5708368,48.9030774 21.1069801,49.7390582 20.9337403,50.6370438 C23.069912,50.3212565 25.2139375,50.080342 27.36431,49.8797331 L27.9509315,49.825995 C29.2964203,49.7050206 30.641257,49.5775422 31.9854415,49.4437766 L32.9407875,49.3473277 L33.8956443,49.2484398 C34.2316905,49.2133182 36.4964154,49.0977638 36.9222333,49.1753782 C36.9676625,48.7938102 37.0270032,47.968019 37.1230784,47.5966406 C35.5141253,47.6511055 33.9121714,47.5319175 32.3126638,47.3198759 L32.0304222,47.2815094 Z M37.129035,31.2987991 C38.7704397,32.293921 41.2714364,34.6143511 39.5056627,37.0813795 C37.4271783,39.2566399 34.4346299,36.7625553 32.9599539,35.6345779 C31.5925652,34.7603891 30.0562274,37.0087372 31.3248914,38.0295 C41.980931,45.8983072 46.3053775,31.5590096 37.9592346,30.1287797 C37.0402943,29.9711745 36.6989975,30.9909473 37.129035,31.2987991 Z M40.0664601,35.4910055 L40.1453623,35.4482166 L40.1720241,35.4321251 C40.2181708,35.4023334 40.1887847,35.4055239 40.0838657,35.4417914 L40.0051632,35.4699759 L40.0051632,35.5254767 C40.0253781,35.5131191 40.0468973,35.5037967 40.0664601,35.4910055 Z M19.0449319,26.6498974 L19.0446516,26.6010554 C19.0476947,25.2185681 19.8549902,22.0620484 21.8504239,22.0620484 C23.0970067,22.0620484 23.8538419,24.2102772 23.984862,26.4247927 L23.9894127,26.5150842 C24.0472706,27.8918781 23.6684653,30.9013098 21.8504239,30.9013098 C20.0131427,30.9013098 19.0638226,28.0510032 19.0449319,26.6498974 L19.0449319,26.6498974 Z M48.422949,26.2162974 L48.4232293,26.1674554 C48.4201862,24.7849681 47.6128908,21.6284484 45.617457,21.6284484 C44.4020388,21.6284484 43.6521869,23.6706084 43.4940167,25.8252609 L43.4830189,25.9911927 C43.4043121,27.3215031 43.7585608,30.4677098 45.617457,30.4677098 C47.4547382,30.4677098 48.4040584,27.6174032 48.422949,26.2162974 L48.422949,26.2162974 Z M20.1834401,12.6361446 C21.8119379,12.3892094 23.9684152,12.8583646 24.7276708,14.509947 C25.0658906,15.2457662 24.6652871,16.0594166 23.8125645,16.100175 C21.7517279,16.1986022 19.9034741,15.7411542 18.0945633,17.0777262 C17.3160808,17.6530346 16.6615798,18.4495865 16.1123443,19.244127 L15.9045297,19.546504 L15.7324103,19.795619 C15.3594647,20.3424976 15.0063102,20.9366601 15.0614534,21.5964886 C15.0777558,21.7918254 14.8775627,21.9771894 14.6873684,21.9693846 C13.5018602,21.9208214 13.374267,20.438343 13.5301177,19.5479454 C13.8200825,17.8954958 14.6219416,16.3442918 15.7333284,15.0948734 C16.9005779,13.7827998 18.4414777,12.9004238 20.1834401,12.6361446 Z M42.6131508,14.641653 C43.7360579,13.9216602 45.1724052,13.6450234 46.4878976,13.7510386 C49.0817131,13.9593834 53.4331411,16.1586026 52.8603846,19.3184626 C52.6836669,20.2929786 51.3247015,20.8072282 50.5239292,20.266529 C49.6629468,19.6852882 49.453407,18.7818826 48.8126153,18.0222154 C48.301373,17.4153922 47.6534083,16.9763722 46.9595795,16.6023922 C46.2757037,16.2335127 45.4845304,16.0099841 44.7084095,15.9284883 L44.5792164,15.9162202 C44.1120992,15.8765458 41.7532553,15.887169 42.0995175,16.7654258 C42.1673354,16.9373482 41.9108448,17.0734986 41.793033,16.9434186 C41.06986,16.1455946 41.888891,15.1060386 42.6131508,14.641653 Z" id="ðŸ–-Ink" fill="#000000"></path>
                            </g>
                        </g>
                    </g>
                    <g id="Group" transform="translate(239.000000, 0.000000)">
                        <g id="peep-sitting-10" transform="translate(178.790735, 271.000000) scale(-1, 1) translate(-178.790735, -271.000000) ">
                            <g id="BODY" transform="translate(-17.585974, 138.101600)">
                                <path d="M76.9538988,179.465934 C72.6449009,190.214011 67.4869999,202.414431 62.7418265,212.884137 C63.1217704,216.201394 64.5479712,219.593663 63.4320217,222.91569 C68.3502324,219.721142 73.8798271,217.715525 79.5240563,216.199442 L79.8414723,218.322348 C80.4697909,218.301969 81.6018065,218.291129 82.2381583,218.282457 C82.1389386,217.438021 82.0047642,215.932562 81.9439732,215.081838 L81.9420192,215.082489 C81.1547754,205.934179 82.6254839,196.568202 84.4216415,187.627804 C84.8597711,184.402037 83.7905004,179.390705 79.7190218,179.308104 C79.1137169,179.400027 78.1169613,177.765355 77.7498269,177.44861 L76.9538988,179.465934 Z M133.896197,303.11066 C113.382701,304.25905 101.653291,287.498242 91.7356697,271.817098 C90.691584,272.507822 89.5348177,273.280281 88.4805277,273.904665 C86.8582759,276.507566 83.5562379,277.296718 80.7055732,277.585278 C70.5452225,278.104081 68.368904,268.993061 65.8465108,261.155524 C65.3660446,261.491998 64.2915633,263.205368 63.483477,262.829437 C58.9208937,261.819582 54.478807,260.612223 49.6415786,260.913792 C44.0898386,259.730281 15.320488,272.383596 17.9757529,261.348693 C19.2725557,256.549825 26.4100729,254.276026 30.0861927,250.963322 C35.4318946,244.890104 34.1300983,237.076415 36.6837554,229.844401 C38.8068818,222.589189 41.2875897,215.754135 45.8783973,209.084934 C46.2928618,184.156619 47.2277409,153.646789 53.6900435,131.477038 C57.8103721,115.918386 62.9148638,99.8329095 60.9528336,83.5065687 L59.8384039,83.4768671 C59.3509902,83.2008807 58.6017409,82.9927527 58.0036007,83.0844591 C57.4990352,82.5274999 56.5637219,82.6968207 55.878086,82.4713487 C54.6422914,70.9399735 54.1657332,61.0703703 55.7339245,50.6091199 C57.1905208,33.3357967 68.106417,26.2702847 84.0499478,22.5081543 C101.571223,16.7692415 113.459775,10.9201943 122.537829,-3.35023208 C124.254741,-6.24624648 125.298175,-9.67515528 127.585655,-12.1169737 C133.265924,-19.2960889 149.601991,-18.1125777 153.820888,-10.5534121 C155.66329,-6.13134248 155.821781,-0.97020168 157.223231,3.62704232 C162.732852,23.1529175 188.073372,20.8531031 201.489082,31.5292023 C207.394712,35.9024919 209.297688,42.6545111 210.063221,49.5272879 C211.028061,58.1700199 212.870898,66.4921047 212.634464,75.0821543 C213.250842,75.1987927 214.661627,74.7604231 214.900666,75.6425823 C214.339435,77.4981735 207.145469,77.4916695 205.139148,77.8199047 C207.77813,91.7742367 205.384918,105.786671 207.505873,119.785447 C210.775344,135.51342 217.208337,150.120103 222.260505,165.314531 C224.204949,170.336053 225.506963,175.71898 228.399313,180.291942 L228.347206,180.331834 C228.804658,181.0902 229.306184,181.82797 229.827033,182.538641 C230.362863,182.731593 230.921706,183.045953 231.450805,183.239122 L231.568479,183.040966 L231.854197,183.424052 L232.693547,183.070018 C233.926519,183.685513 235.265658,184.398351 236.580916,185.147829 C252.746116,194.94372 263.324623,204.883783 275.998682,217.192603 L274.317159,218.554541 C274.929194,219.405264 275.670628,220.531106 276.265294,221.427791 C276.761609,220.990072 277.82111,220.253602 278.431626,220.000597 C289.238098,232.828653 290.559434,255.064962 285.296234,268.582658 C283.622093,272.63335 280.973559,275.958845 277.774865,278.760334 C276.453963,280.743187 274.079857,283.481805 271.046168,284.796914 C271.046168,284.796914 270.663619,285.337613 270.650809,285.355824 C270.488844,285.377721 269.495345,285.605361 269.43716,285.83647 C261.361941,287.196022 253.26436,290.745038 244.896476,290.79642 C231.248457,290.677614 219.521001,279.612575 208.574492,272.305114 C201.650178,267.373782 193.58169,263.986282 186.104394,260.689404 C186.661935,263.531652 186.503444,264.506602 183.408746,265.581279 C180.652091,266.67677 177.335941,265.820193 174.771428,264.616519 C174.838298,269.327583 175.214334,274.032143 175.084502,279.056483 C175.083633,285.13859 175.286849,292.61689 168.723807,295.424666 C157.548029,299.82072 144.920431,302.978412 133.896197,303.11066 L133.896197,303.11066 Z" id="âœ‹-Skin" fill="#EDB98A"></path>
                                <path d="M81.086176,215.642429 L81.2389493,216.663416 L82.0194226,216.649698 L82.1759393,218.131433 C82.254345,218.873695 82.34306,219.603338 82.4428777,220.324071 C82.5872704,221.375351 82.7602311,222.436115 82.9611682,223.506524 L83.0489953,223.965862 L83.2370552,224.931884 L82.4672141,225.546299 C81.6047967,226.234599 80.7866887,227.103332 79.8240519,228.273304 C78.2637577,230.172374 77.0520824,232.381149 76.2028533,234.836034 C75.4022048,237.151344 75.0212513,239.579438 75.0906788,241.970295 C75.1257403,243.13734 75.3047891,244.267925 75.6303567,245.375975 C75.7183113,245.673098 75.8096444,245.950814 75.9070943,246.212707 L75.9563417,246.342351 L76.2374771,247.067228 L75.8490557,247.740889 C75.6681787,248.054594 75.6514004,248.376398 75.7542853,248.558158 L75.77061,248.584353 L90.5196966,270.097641 L91.5120251,271.554273 L90.0893837,272.453023 C89.9651068,272.531535 89.8354319,272.617996 89.6863973,272.721368 L89.5303923,272.830709 L88.7219939,273.402505 L87.8418424,272.94848 C87.7051474,272.877966 87.5294318,272.851544 87.4113889,272.875222 C86.9140558,272.974142 86.5746379,273.137566 86.0001552,273.53385 L85.4082428,273.949589 C84.9850599,274.242288 84.6258932,274.46406 84.2181345,274.670541 C83.2413793,275.166086 81.6388197,275.577873 80.5280891,275.646126 C78.9209941,275.742809 77.906536,275.620832 76.4206864,275.149531 C75.2307313,274.770827 74.0083109,274.090514 73.1482207,273.298603 C71.3302608,271.627076 70.3280277,269.690218 69.1682344,266.295803 L69.1137499,266.135617 L68.791537,265.167016 L68.4804306,264.218304 C67.584764,261.492816 67.0154123,260.035811 66.1910938,258.572021 C65.5313487,257.40265 64.7464635,256.381723 63.8890969,255.605183 L63.8214715,255.54557 C63.6465851,255.395339 63.4243156,255.233235 63.0711767,254.994483 L62.6956259,254.742662 C61.4297075,253.893508 60.7911719,253.345887 60.2789913,252.442275 C59.8138941,251.622691 59.5601792,250.706528 59.3770763,249.481201 L59.3175875,249.058513 C59.3042825,248.95707 59.2899164,248.840878 59.2673317,248.653508 L59.1933429,248.037607 C59.1781297,247.913314 59.1650903,247.810574 59.1525879,247.717089 L59.1340326,247.582265 L59.1168806,247.464522 C58.9257637,246.186269 58.7789164,244.88921 58.675408,243.572727 L58.6425091,243.133179 L58.6195723,242.796339 L58.5941588,242.3826 C58.2097951,235.719582 59.1143403,230.304714 61.9216416,225.940059 C63.8068046,223.011188 66.4414329,220.868651 69.8672422,219.236349 L70.0788611,219.136415 L70.2999131,219.033971 C72.5827039,217.986422 74.8399905,217.274174 78.7769079,216.242337 L79.33374,216.097148 L81.086176,215.642429 Z M172.870015,254.761988 L175.769339,256.221673 L176.163254,256.416906 C177.962753,257.300978 179.714285,258.052663 182.811995,259.303915 L184.058877,259.805641 L187.096696,261.025377 L184.289563,262.708304 C184.140747,262.797522 183.992317,262.899641 183.779249,263.0587 L183.272555,263.444048 L183.121524,263.557272 C182.978039,263.663715 182.853769,263.752197 182.717931,263.844163 C181.735536,264.505323 180.760263,265.020314 179.782332,265.36092 C178.415549,265.841387 176.993579,266.004463 175.529607,265.875941 L175.372592,265.861056 L174.026757,265.724067 L173.914957,264.377816 C173.750045,262.392017 173.554178,260.43364 173.326551,258.50314 L173.239701,257.78051 L172.870015,254.761988 Z" id="ðŸ‘Ÿ-Shoes" fill="#FFFFFF"></path>
                                <path d="M202.689256,168.952234 L203.901817,169.701061 C204.52786,170.194856 211.599417,173.880533 219.618289,178.050102 C229.131841,182.996859 239.977463,188.635683 242.873143,190.424432 L242.873143,190.424432 L243.545425,190.84154 C252.454522,196.390874 259.651806,201.751948 265.835366,207.695985 C273.176886,214.750702 278.69095,222.361037 282.023413,230.570174 C285.64791,239.50033 286.672607,249.28317 284.975163,258.767227 C283.494088,267.03916 280.110776,274.843161 275.122641,281.40517 C274.302025,282.232115 273.799454,282.644862 273.287337,283.028187 L273.287337,283.028187 L267.245496,284.757374 L266.222109,285.014661 L265.293409,285.250928 L261.013483,286.349432 C257.438187,287.260352 255.330889,287.761213 252.987205,288.240089 L252.987205,288.240089 L252.200978,288.397665 C247.107147,289.383748 242.508055,289.283744 238.098025,287.905595 C234.40757,286.754025 230.921628,284.942821 226.597692,282.139332 L226.597692,282.139332 L225.708161,281.556759 L225.25529,281.256586 C224.383373,280.67654 218.72596,277.310399 212.370387,273.647447 L211.648125,273.231639 C211.044121,272.884299 210.435276,272.535153 209.825021,272.186292 L209.825021,272.186292 L208.963599,271.694581 L208.963599,271.694581 L208.169562,271.242692 C203.673822,268.688006 199.269646,266.251933 196.327674,264.767491 L195.82396,264.515579 C194.848005,264.03219 194.064237,263.673447 193.532915,263.475973 L193.532915,263.475973 L192.429782,263.067962 L191.361867,262.67711 L190.444826,262.344723 C185.577368,260.588325 179.268009,258.746508 171.516577,256.819821 L171.516577,256.819821 L173.274266,276.289698 L173.408879,277.786115 C173.568621,279.627247 173.638912,280.745738 173.626741,281.385597 L173.626741,281.385597 L173.605842,282.043451 L173.566598,284.087444 C173.557162,284.519948 173.546255,284.851149 173.530207,285.171208 C173.316732,288.239679 172.81144,290.103754 171.648845,291.606621 C171.037662,292.396805 165.196671,294.442381 159.003081,296.372607 L158.287149,296.594736 L158.287149,296.594736 L157.928529,296.70527 L157.097061,296.959518 L157.097061,296.959518 L156.197824,297.231198 C151.262136,298.713024 146.541686,299.97569 144.431336,300.312548 C136.815029,301.478021 130.454803,301.420311 124.717466,299.980781 C118.43985,298.404649 112.956964,294.975293 108.300047,289.901235 C105.366757,286.667098 103.187735,283.749243 99.8220461,278.79113 L99.8220461,278.79113 L99.1992924,277.870621 L96.5911969,273.99275 L95.9698423,273.079101 L88.9731354,262.873302 L78.7938673,248.028379 C78.6286512,247.787255 78.4204439,247.609858 78.201461,247.499928 C77.9540768,247.375741 77.6924278,247.337206 77.4549638,247.383792 L77.4549638,247.383792 L75.6790451,247.823398 L75.6960622,246.04596 C75.7013144,245.497368 75.480291,244.841721 75.2462226,244.168444 C75.0004844,243.4616 74.7372078,242.732994 74.7939618,242.103445 C75.009639,239.697339 75.656609,237.2291 76.6492933,235.026551 C77.3267044,233.526278 79.7586444,229.594918 83.9414945,223.230712 C83.0816109,218.435983 83.3065616,208.088756 84.6423013,192.007702 C84.799688,190.832069 85.0477724,185.939753 85.3848874,177.330547 L85.3848874,177.330547 L87.2553681,178.440249 C95.436202,183.293702 107.502466,187.032848 120.800242,187.158541 L120.800242,187.158541 L121.499767,187.163357 L122.181519,187.16308 C123.530302,187.155289 123.977987,187.0938 124.278576,186.986948 C125.069446,186.713548 125.349148,186.645388 125.684635,186.585194 C128.057522,186.189903 133.352414,185.989406 144.146731,185.964977 L144.146731,185.964977 L145.54558,185.962832 C157.889089,185.952546 170.854978,183.312413 183.640912,178.910851 C188.051509,177.392502 192.131492,175.766819 195.798726,174.133719 C197.138447,173.532181 197.957156,173.152039 198.705669,172.794251 C200.993551,171.424897 201.398502,170.928873 201.77338,170.381473 L201.77338,170.381473 L202.689256,168.952234 Z" id="ðŸ‘–-Pants" stroke="#979797" stroke-width="0.5" fill="#007BFF"></path>
                                <path d="M123.855821,-9.3808276 C124.732949,-11.0566916 127.383872,-9.8772996 126.869319,-8.1125476 C125.55797,-3.6202348 122.409864,0.6266604 119.372484,4.1236444 C116.317735,7.6403572 112.733236,10.6929012 108.875177,13.3029564 C108.451811,14.7338364 108.542998,16.1105164 109.11617,17.5067084 C109.335452,18.0400364 109.107486,18.4454524 108.729713,18.6516292 C109.11617,20.0822924 109.354992,21.5740932 109.758818,22.9939164 C110.811805,26.6968604 112.500927,30.2417572 114.708944,33.3983652 C118.682071,39.0806932 124.307412,43.4166932 131.109493,45.0882212 C137.779136,46.7272292 145.128337,45.7861004 150.923024,42.0051084 C156.142367,38.5991804 159.870159,33.2528924 160.482412,26.9787004 C160.766827,24.0519004 160.501952,21.1164284 159.822395,18.2611724 C159.461991,16.7479084 158.997374,15.2606604 158.450255,13.8061492 C157.87274,12.2731564 157.099826,10.8119244 156.674288,9.2314524 C156.635208,9.0864132 156.624353,8.9411572 156.635208,8.7978524 C155.790647,7.4298444 155.519259,5.7149564 156.016443,4.1323164 C156.040325,4.0544852 156.07072,3.9827244 156.107629,3.9179012 C156.075063,3.6488524 156.042496,3.3778524 156.016443,3.1068524 C155.907887,2.0293564 155.942625,0.9737572 155.890518,-0.0972348 C155.838412,-1.1250836 155.651697,-2.0313076 155.719001,-3.0632756 C155.727685,-3.1976916 155.890518,-3.2364988 155.966507,-3.1280988 C156.643593,-2.16311452 156.764091,-1.26280419 157.105759,-0.181295313 L157.143248,-0.0647148 C157.52102,1.0951652 157.816291,2.2483244 158.131102,3.4277164 C158.61743,5.2555572 159.301329,6.9769492 160.32175,8.5747652 C162.108571,11.3671492 164.581463,13.6281564 167.345284,15.4364852 C178.031477,22.4215644 191.781103,22.6210204 201.94623,30.6447884 C204.390898,32.5743084 206.51207,34.9916284 207.940659,37.7688364 C209.720115,41.2262157 210.350241,45.0292596 210.907752,48.8306044 L211.001921,49.4760364 C211.644569,53.8987564 212.222084,58.3323164 212.72361,62.7723804 C212.973287,64.9752852 213.203425,67.1820924 213.416193,69.3891164 C213.557315,70.8505652 213.91989,72.4548852 213.746201,73.9332444 C213.941601,73.9356292 214.13483,73.9570924 214.325887,74.0112924 C215.146566,74.2367644 215.823952,74.8526932 215.852176,75.7370204 C215.92239,78.0360933 212.6272,78.2819609 210.948489,78.5600185 L210.847772,78.5771004 C209.35405,78.8350924 207.847301,79.0367164 206.334039,79.1475012 C206.870303,82.0415644 207.065703,84.9857084 207.21768,87.9385244 C207.364157,90.7702359 207.416061,93.6111581 207.45302,96.4502614 L207.496007,99.9328283 C207.570991,106.507623 207.347654,113.199727 208.440014,119.706228 C209.383116,125.332202 211.17056,130.759162 213.02471,136.144319 L213.80265,138.396556 C216.05626,144.920285 218.29033,151.450084 220.615587,157.94758 C221.779301,161.197412 222.936501,164.45158 224.095873,167.70358 C224.675559,169.32958 225.248731,170.957748 225.83493,172.58158 C226.04987,173.173444 226.293034,173.763357 226.510145,174.357172 C226.612187,174.467957 226.699031,174.59782 226.753309,174.758252 C227.306941,176.399428 228.032091,177.95822 228.898363,179.438964 C229.944837,180.236788 230.956574,181.038948 231.918375,181.938885 C231.927059,181.945172 231.931401,181.956012 231.937915,181.964684 C232.204961,181.851948 232.519771,181.841108 232.847609,182.003708 C234.193696,182.67362 235.518071,183.384724 236.822907,184.121844 C236.838105,184.128348 236.851132,184.132684 236.864158,184.139188 C236.868501,184.143524 236.870672,184.14786 236.872843,184.152413 C244.899429,188.696324 252.190009,194.441524 259.178805,200.442548 C262.728567,203.490756 266.245761,206.584492 269.715192,209.723756 C273.00442,212.70042 276.21766,215.783316 279.02056,219.228485 C281.806092,222.651757 284.144375,226.387221 285.707573,230.525716 C287.372857,234.934632 288.158948,239.626484 288.678109,244.295578 L288.710215,244.587364 C289.60254,252.799748 289.420167,261.517276 286.143965,269.226901 C284.504779,273.083773 282.064453,276.515717 278.907663,279.282085 C278.775225,279.399157 278.638445,279.509508 278.503837,279.624629 C276.719186,282.263085 274.367876,284.641164 271.560634,285.963861 L271.244617,286.411288 L271.244617,286.411288 L271.085161,286.633773 L269.984409,286.915613 L269.880196,287.01946 L269.880196,287.01946 C269.519792,287.373061 269.087742,287.396692 268.73168,287.238645 L264.901846,288.223649 L264.901846,288.223649 L261.072011,289.207189 C255.961223,290.522948 250.787473,292.021036 245.479114,292.216373 C240.505106,292.400436 235.733011,291.090964 231.24316,289.033749 C226.868378,287.030517 222.847486,284.331357 218.902583,281.597292 C215.066235,278.939324 211.29285,276.190517 207.473871,273.504148 C206.123442,272.554564 204.766499,271.622324 203.39653,270.709813 C203.096049,270.553544 202.798347,270.398801 202.502312,270.254464 L202.280581,270.148301 C200.904098,269.499852 199.573209,268.739101 198.218438,268.047292 C195.508895,266.662157 192.75593,265.356804 189.994281,264.077901 C189.112811,263.668149 188.218315,263.277692 187.319476,262.898292 C187.352043,263.165173 187.349872,263.436173 187.308621,263.69178 C187.039403,265.445692 184.998562,266.371645 183.522209,266.933157 C182.284677,267.405564 180.912537,267.572717 179.592503,267.505292 C178.278983,267.438301 176.948094,267.175973 175.723589,266.681452 C175.723589,266.692292 175.723589,266.700964 175.72576,266.711804 C175.962794,270.209375 176.057511,273.721925 176.046114,277.228307 L176.039591,278.428478 C176.023658,281.874183 176.069446,285.464777 175.339303,288.834076 C174.557704,292.441845 172.254159,295.18198 168.92585,296.738604 C166.009282,298.103738 162.834313,298.994361 159.745764,299.916315 L159.1081,300.107676 C152.379837,302.14126 145.484398,303.734957 138.467378,304.333108 C131.817274,304.899173 124.882756,304.420045 118.614767,301.991885 C111.890846,299.385949 106.495643,294.817973 102.027503,289.233205 C98.4686427,284.784453 95.262401,280.04556 92.0751278,275.309557 L91.0264991,273.751517 C90.40122,274.165605 89.7672565,274.568636 89.1246085,274.958876 C88.91184,275.379685 88.6057138,275.759085 88.16715,276.110301 C87.4528555,276.684604 86.7081655,277.202973 85.8831445,277.603836 C84.1592848,278.440901 82.3442386,278.906804 80.4314926,279.019757 C76.8860734,279.225717 73.2125588,277.974564 70.6289404,275.524724 C67.2702365,272.335813 66.4300178,267.828324 64.9645199,263.69178 C64.4543096,264.212317 63.6879085,264.374917 62.9215074,264.249173 C60.6179619,263.880613 58.3990897,263.108805 56.0846887,262.746749 C53.857132,262.395316 51.5796398,262.289301 49.3260298,262.350005 C45.0149332,262.466355 40.9171895,263.494427 36.7939398,264.654369 L35.7214863,264.957576 C31.9774647,266.014794 28.1759849,267.030717 24.2736158,267.212829 L23.7893359,267.233681 C21.9364268,267.30648 19.6986484,267.296545 18.0816161,266.460316 C16.0364325,265.402549 15.7020819,263.084957 16.3924942,261.064164 C17.3846905,258.150589 19.6404716,256.15798 22.1589568,254.527861 C24.3669735,253.099149 26.972303,251.913036 28.8416268,250.15262 C31.2827849,247.851808 31.9878519,244.367841 32.5774803,241.200486 L32.6019857,241.0687 C33.3141091,237.227221 34.0544569,233.41566 35.0748776,229.641172 C36.0931272,225.873188 37.4109897,222.191924 38.9611607,218.610388 C40.476594,215.104949 42.206967,211.540757 44.4779459,208.451357 C44.480117,208.444636 44.4822881,208.4403 44.4844592,208.435964 C44.460577,208.31022 44.441037,208.182308 44.4323526,208.043556 C44.3954438,207.48638 44.4345237,206.914028 44.441037,206.354684 L44.4736037,202.762308 L44.4736037,202.762308 C44.4974858,200.436044 44.5257103,198.111948 44.5647902,195.785684 C44.6429501,190.996572 44.7471633,186.203124 44.9664452,181.418348 C45.7415307,164.486485 47.7454633,147.695108 52.0789946,131.28118 C54.1784559,123.322452 56.4776592,115.383236 58.0603968,107.301149 C58.9136422,102.94542 59.4542481,98.5966292 59.6952411,94.2278924 C59.7755721,91.1257012 59.6800433,88.0146212 59.4064837,84.9122132 C59.2479929,84.9076604 59.0808176,84.8686364 58.9114711,84.7799652 C58.6856759,84.6605084 58.446854,84.5759564 58.2015189,84.5065804 L57.5588709,84.5239244 L57.5588709,84.5239244 C57.1832693,84.5347644 56.9097097,84.3851724 56.736021,84.1620852 C56.6274656,84.1315164 56.5189102,84.0992132 56.412526,84.0623572 C55.789418,84.0211652 55.1728233,83.8887004 54.5562287,83.6675644 C54.3955667,83.6090284 54.3130646,83.4941244 54.2956958,83.3250204 C54.2218781,82.6574932 54.1502315,81.9873644 54.0807561,81.3174524 C53.937463,80.7149652 53.8896986,80.0797412 53.8918697,79.4356284 C53.3078417,73.3565564 52.9561222,67.2254524 53.1493508,61.1203644 C53.0103999,60.8344052 53.0429665,60.5285004 53.1797463,60.2685572 C53.3100128,57.0141724 53.5987701,53.7708444 54.0959538,50.5470284 L54.1676254,50.0893254 C55.3582255,42.608136 57.5471035,34.884139 63.6727107,29.9358524 C69.3414734,25.3570364 76.4844184,23.5142364 83.3125527,21.4004364 L83.9204071,21.2109734 C92.5285856,18.509416 100.997649,15.0555477 108.347598,9.7474364 C111.721499,7.3108212 114.810986,4.4531804 117.468422,1.2534292 C118.803653,-0.3532756 120.008618,-2.0657788 121.061606,-3.8697716 C122.110251,-5.6605396 122.896192,-7.5486508 123.855821,-9.3808276 Z M202.065641,170.498349 C201.531548,171.337148 200.897585,172.098116 200.165922,172.748516 C199.612289,173.021684 199.067341,173.314364 198.526735,173.61138 C198.129422,173.750349 197.736452,173.895388 197.345652,174.047148 C196.583594,174.311644 195.828048,174.599988 195.072503,174.892885 C194.892301,174.873156 194.712099,174.843021 194.540581,174.790772 C192.632177,175.621116 190.632587,176.23466 188.574377,176.616228 L188.539639,176.620564 L188.539639,176.620564 C186.859201,177.353348 185.159224,178.036485 183.46576,178.686885 C178.99762,180.403724 174.41224,181.804252 169.763898,182.94462 C161.470266,184.978421 152.987747,186.203124 144.490031,186.99878 C136.406996,187.753244 128.256657,188.251884 120.136714,188.197684 C108.948995,188.123972 96.9080303,186.758349 87.2314025,181.017485 C87.2036123,181.33991 87.1577585,181.664 87.1205196,181.979432 L87.0837671,182.3159 C87.3269312,184.499293 87.3616689,186.693092 87.2053492,188.922013 C86.9578429,192.466693 86.2630883,195.961292 85.9526199,199.499685 C85.8896578,200.221412 85.5900449,200.730892 85.1797055,201.053924 C84.4719243,208.384149 84.6087041,215.881093 86.0112398,223.093812 C86.2305217,223.213052 86.4150659,223.379988 86.5561879,223.573157 C86.6213211,224.013044 86.7059944,224.444693 86.8167209,224.869621 C86.8145498,224.882412 86.8123786,224.897588 86.8080364,224.910596 C86.7472454,225.146908 86.6560589,225.363708 86.5453324,225.565549 C87.7698372,230.707828 89.6695566,235.679052 92.4094948,240.305564 C95.7028409,245.860578 100.027735,250.667931 104.352098,255.433989 L105.575093,256.782364 C107.971996,259.425373 110.353702,262.085292 112.56606,264.886348 C113.74063,266.373813 114.884804,267.88686 115.950818,269.454324 L116.327878,270.008544 C117.266291,271.394129 118.154492,272.790239 118.577858,274.427716 C119.101095,276.455013 116.482739,278.128492 114.971648,276.524389 C113.556086,275.01958 112.615996,273.174829 111.44794,271.477285 C110.375413,269.920661 109.231239,268.41802 108.034958,266.952452 C105.699357,264.091713 103.2099,261.357914 100.736734,258.614954 L99.8030839,257.577524 C95.2595781,252.516762 90.7703083,247.296786 87.4962776,241.30718 C85.3881319,237.450308 83.7706565,233.357124 82.5982582,229.13386 C82.3029876,229.413749 82.0120591,229.697757 81.7341573,229.994556 C80.1622752,231.672588 78.8813215,233.5891 77.9347185,235.685556 C77.0054843,237.747324 76.3975741,240.067084 76.1956611,242.319636 C76.093619,243.451549 76.0284857,244.585196 76.0176302,245.71906 C77.101013,245.450228 78.2256469,245.964044 78.8748082,246.91146 L82.2877898,251.889405 L82.2877898,251.889405 L89.0537762,261.755946 L89.0537762,261.755946 L95.8181342,271.622324 C99.7738928,277.389204 103.514712,283.461989 108.258582,288.630501 C112.570403,293.328557 117.77889,296.745108 123.996943,298.306285 C130.002228,299.813045 136.41351,299.645892 142.52952,298.711701 C148.925914,297.735838 155.208516,296.026755 161.401562,294.179205 L161.854552,294.04378 C164.407775,293.278476 167.770821,292.662764 169.501194,290.425605 C171.304225,288.094857 171.08604,284.456522 171.17138,281.663525 L171.175118,281.547645 C171.663617,267.284373 170.230686,252.992917 167.076066,239.076308 C165.499842,232.1257 163.604465,225.224956 161.255326,218.495484 L160.662644,216.797439 C159.674036,213.966894 158.677135,211.135847 157.607865,208.3319 C156.103287,205.195021 154.446732,202.129252 152.642541,199.146084 C151.917391,197.94718 153.795399,196.858844 154.516207,198.051244 C157.204039,202.497812 159.564033,207.124324 161.589677,211.900428 C161.79159,212.308012 161.991332,212.717764 162.188902,213.127516 C162.712139,211.256749 163.469856,209.45926 164.355668,207.722692 C165.445564,205.585044 166.822047,203.607828 168.348335,201.756356 L168.501098,201.572096 C170.060256,199.704414 171.810908,198.020273 174.316711,197.604636 C175.693193,197.377213 176.676705,198.601916 176.075308,199.889708 C175.091797,201.992885 173.415701,203.373684 171.863359,205.030036 C170.452139,206.536796 169.234148,208.182308 168.150765,209.938388 C167.02396,211.759508 166.079528,213.710708 165.237138,215.677084 C164.931012,216.392524 164.650939,217.119021 164.331786,217.825572 C168.029183,226.41302 170.775634,235.429949 172.699236,244.522324 C172.72746,244.650236 172.751342,244.780316 172.777396,244.908228 C173.973676,245.604156 175.11785,246.482196 176.262024,247.1933 L177.146898,247.742307 C178.327703,248.473461 179.514343,249.1974 180.730164,249.868612 C182.25211,250.707845 183.806624,251.49678 185.391532,252.214605 C187.093681,252.986413 188.817541,253.482885 190.276525,254.670949 C191.06898,255.317013 190.391594,256.643829 189.46236,256.630604 C187.875431,256.607664 186.448166,255.987204 185.037726,255.304798 L184.071499,254.833549 C182.395404,254.022717 180.764902,253.124948 179.190848,252.129836 C177.575544,251.108708 176.025373,250.016036 174.566388,248.78678 L174.161356,248.445698 C173.888279,248.214766 173.610377,247.976671 173.33537,247.730964 L173.50729,248.646567 C173.535836,248.799403 173.56406,248.952416 173.591561,249.105693 C173.86295,249.255285 174.136509,249.395988 174.407898,249.530621 C174.462175,249.70818 174.518624,249.885956 174.577244,250.061564 C174.364475,250.204652 174.221182,250.460693 174.292829,250.75966 C174.549354,251.856335 174.685632,252.971667 174.836568,254.082978 L174.874686,254.360708 L174.377502,253.983476 C174.483886,254.707805 174.581586,255.434085 174.677115,256.160148 C180.356733,256.578789 185.984245,258.601316 191.275235,260.537557 C194.24531,261.623508 197.148082,262.857317 200.013944,264.19042 L200.705683,264.512388 C201.858481,265.051478 203.008264,265.606124 204.117338,266.224004 C204.240367,266.293525 204.362432,266.363913 204.483532,266.435232 L204.664457,266.542917 L205.094337,266.428013 C205.700076,266.616629 206.303644,266.809364 206.907212,267.004701 C209.330168,268.671676 211.720558,270.386564 214.100092,272.106005 L216.737831,274.013375 C219.597435,276.077627 222.469585,278.12598 225.411564,280.068852 L225.855088,280.360703 C229.484423,282.738001 233.293112,284.9543 237.452529,286.252205 C241.96192,287.661405 246.497364,287.581189 251.100113,286.663908 C256.113201,285.662292 261.061156,284.274989 266.019966,283.04118 C267.730799,282.616252 269.441632,282.193492 271.154636,281.770949 C271.727809,281.354476 272.281441,280.910036 272.811192,280.43958 C277.793884,273.955092 281.115679,266.26086 282.561637,258.18506 C284.21385,248.953716 283.215141,239.434028 279.689261,230.746852 C276.211147,222.178916 270.453368,214.718828 263.822805,208.347293 C256.970788,201.760692 249.163485,196.243349 241.091305,191.254564 C235.318329,187.688421 229.406403,184.332357 223.418487,181.121549 C222.597808,180.813693 221.803183,180.438412 221.019413,180.0395 C219.438846,179.35658 217.866964,178.660652 216.305938,177.943044 C214.797018,177.273349 213.288098,176.596716 211.785691,175.914013 C210.585611,175.369141 209.387974,174.819512 208.191863,174.26595 L206.996227,173.711108 C205.765209,173.138756 204.482084,172.612149 203.41607,171.751236 C203.0231,171.432757 202.703947,171.090213 202.447756,170.725772 C202.321832,170.649892 202.191565,170.57618 202.065641,170.498349 Z M129.426863,263.871724 C129.524562,263.698501 129.772069,263.850261 129.689567,264.025652 C128.758161,266.039724 128.193673,268.325013 127.674779,270.47762 C127.206579,272.420029 126.853986,274.37183 126.685872,276.361647 L126.635088,277.005181 C126.488775,278.812072 126.269278,280.858963 127.142857,282.503516 C127.736481,283.62129 128.901432,284.957272 130.153416,285.31838 L130.230173,285.33926 C131.721724,285.71866 131.519811,287.695876 130.230173,288.162213 C127.765965,289.048708 125.158465,287.895549 123.810207,285.742508 C122.392473,283.483452 122.4055,280.647708 122.952619,278.126324 C123.506251,275.574805 124.622201,273.066429 125.688215,270.690301 C126.762913,268.29878 128.152422,266.148124 129.426863,263.871724 Z M80.4749147,217.485196 L79.5079255,217.735925 C73.3653451,219.333346 66.9290469,221.17329 63.2927669,226.822772 C60.2445314,231.56202 59.8797853,237.558708 60.2684136,243.026621 C60.3582974,244.290999 60.4903876,245.553445 60.6678497,246.809534 L60.7286884,247.227988 C60.9371148,248.617893 60.9957347,250.408444 61.6970026,251.644204 C62.3765593,252.843108 63.9853503,253.500229 64.9840599,254.404285 C66.0348761,255.35582 66.9163459,256.546052 67.6111005,257.777476 C68.9919251,260.229701 69.7626684,262.972004 70.6593359,265.623685 L70.7537883,265.900883 C71.5455398,268.208921 72.4634431,270.461035 74.2525195,272.106005 C74.9516162,272.749901 75.9763792,273.304692 76.9164689,273.603876 C78.2082781,274.013845 79.0224435,274.111405 80.4314926,274.026636 C81.2782246,273.974604 82.674247,273.634445 83.4818991,273.224476 C84.8562104,272.528548 85.492345,271.603029 87.0946227,271.284116 C87.5809508,271.186773 88.1324122,271.271108 88.590516,271.50742 C88.7989424,271.360213 89.0073687,271.216908 89.2201373,271.082492 C89.0030265,270.764013 88.7859157,270.445317 88.5688049,270.128789 L74.4283792,249.506556 L74.4283792,249.506556 C73.9008,248.736916 73.9854732,247.720124 74.4392348,246.933357 C74.2937705,246.558293 74.1721885,246.18518 74.0701464,245.840685 C73.7032292,244.5917 73.5034873,243.32342 73.4644073,242.02262 C73.3884186,239.405844 73.8096135,236.782564 74.66503,234.309093 C75.5530131,231.741964 76.8404801,229.346324 78.5665109,227.245749 L78.7292841,227.049024 C79.4280774,226.209563 80.3804313,225.135065 81.4519133,224.279708 C81.2109203,223.04178 81.0024939,221.797348 80.8309764,220.54858 C80.6898544,219.52962 80.5726146,218.508492 80.4749147,217.485196 Z M174.857317,257.586692 C175.128705,259.802605 175.354501,262.024805 175.539045,264.247005 C176.774405,264.372749 178.016279,264.261964 179.242955,263.830749 C180.146136,263.516389 181.01675,263.032708 181.809204,262.49938 C182.382377,262.111308 182.877389,261.662749 183.452733,261.31782 L182.145663,260.792289 C179.677888,259.796855 177.221328,258.777141 174.857317,257.586692 Z M82.4831895,85.4973564 C75.5247887,84.7363884 68.5294791,84.3851724 61.5319984,84.4460932 C62.1355664,90.8653244 61.9814177,97.3326852 61.0847501,103.70422 C60.921917,105.781164 60.700464,107.843149 60.4464444,109.880852 C58.386063,126.453044 53.6052835,142.531149 51.7229329,159.131308 C50.7633032,167.586508 50.3008572,176.0829 50.0120999,184.583628 C49.8688068,188.811228 49.7819625,193.038828 49.7233425,197.266428 C49.692947,199.449821 49.6690648,201.634948 49.6495249,203.818124 L49.6234716,206.987957 L49.6234716,206.987957 C49.6191294,207.549252 49.6690648,208.182308 49.5170873,208.730812 C49.3762065,209.243424 49.0431961,209.66696 48.7330582,210.091258 L48.6182486,210.25058 C47.8865853,211.284716 46.5969472,211.432357 45.7328462,210.632148 C44.6993989,212.492292 43.6398982,214.335092 42.6824397,216.238596 C41.4340526,218.723124 40.335472,221.277028 39.4930822,223.915484 C38.7744454,226.91166 38.1882463,229.944692 37.678036,232.977724 C37.0570991,236.650316 36.6402464,240.357596 35.9932562,244.025852 C35.3896882,247.449124 34.2324877,250.727357 31.7899914,253.283429 C29.8815875,255.277989 27.4825133,256.61326 25.1789678,258.087717 L24.8105407,258.32466 C23.8607569,258.939313 23.1574252,259.435009 22.3391587,260.257885 C21.6769708,260.923461 21.2145248,261.58882 20.956163,262.380357 L21.1397704,262.426651 C21.218867,262.445778 21.293305,262.461688 21.3578179,262.469245 C22.2588277,262.570924 23.1728641,262.594989 24.0782161,262.57526 C25.9627378,262.532117 27.819035,262.25006 29.6536212,261.840308 C33.4183223,260.999124 37.0722969,259.73518 40.8326557,258.88966 C44.7232811,258.014005 48.7354885,257.63222 52.7194714,257.864413 L53.1298663,257.889134 C56.4295857,258.095654 60.1133965,258.521317 63.2189492,259.822117 C63.0799983,259.585805 62.9345341,259.353829 62.7803854,259.123804 C62.027011,258.014005 60.7113196,257.131629 59.5541191,256.218901 C57.9171037,254.926773 57.0247784,253.24202 56.6708878,251.199764 C56.0933731,247.871884 55.7481669,244.463788 55.728627,241.084093 C55.689547,234.621285 56.9726718,227.711652 61.6904892,222.946388 C61.7035159,222.935548 61.7165425,222.922757 61.7295692,222.909749 C61.7404247,222.686228 61.746938,222.465092 61.7491091,222.241788 C60.8502705,221.910084 60.1707137,221.060228 60.1815693,220.02826 C60.2011092,218.298196 60.296638,216.568349 60.5875664,214.861916 C59.9036674,214.577908 59.3782593,213.938348 59.3739171,213.055972 C59.3675899,211.619641 60.0803974,210.361302 60.6565195,209.078237 L60.7069774,208.964956 C61.2258721,207.792285 61.7447669,206.617012 62.2636617,205.441956 L64.3357028,200.745105 C64.681311,199.962457 65.0274821,199.18005 65.3748593,198.398124 C68.989754,190.274628 72.8065616,182.246524 76.4974451,174.157716 C77.9607718,170.951244 79.3828474,167.72526 80.6898544,164.45158 C81.5517842,160.889556 82.6026004,157.375228 83.579599,153.843556 C84.5522553,150.320556 85.4662918,146.776093 86.0676886,143.168324 C86.6907966,139.435028 86.9491584,135.643413 86.9925806,131.860036 C87.0796609,124.339433 86.2837026,116.825054 85.3384633,109.3717 L85.2752343,108.8749 C84.283038,101.089612 83.3234083,93.3043244 82.4831895,85.4973564 Z M248.981068,232.44444 C248.826919,232.329536 248.970212,232.069376 249.135217,232.179944 C253.251637,234.924632 257.133578,238.269856 260.166616,242.1896 C263.397224,246.360832 265.883143,251.028536 267.643911,255.995424 C268.299586,257.851449 265.184046,258.735993 264.680349,256.810592 C262.222655,247.444832 256.838307,238.274192 248.981068,232.44444 Z M210.897686,201.461573 C210.978017,201.361845 211.138679,201.491925 211.073546,201.598157 C209.634509,203.91724 208.733584,206.464979 207.737487,208.989495 L207.536811,209.494013 C206.505535,212.063093 205.63275,214.723229 204.940166,217.402877 C203.531117,222.851061 203.142489,228.483525 202.178517,234.016261 C201.987459,235.111101 200.220178,235.072077 199.998725,234.016261 C198.763364,228.073773 199.977014,222.027221 201.970091,216.392589 C202.962287,213.587197 204.184621,210.890205 205.678343,208.314621 C207.119958,205.827925 209.113036,203.698949 210.897686,201.461573 Z M112.25772,210.809989 L112.558714,210.64737 C117.192836,208.162405 122.687999,206.085318 127.99391,206.556373 C129.461579,206.686453 129.871918,208.752557 128.352142,209.190493 C123.397674,210.619205 118.365046,211.399685 113.584267,213.422429 C108.805658,215.443005 104.630618,218.345957 100.466433,221.385493 C100.301429,221.506901 100.075633,221.270589 100.18636,221.107989 C103.169462,216.737301 107.648458,213.318365 112.25772,210.809989 Z M77.8153075,180.078524 C76.6494226,183.033508 75.4379444,185.971148 74.2286373,188.90662 C72.6422811,192.753134 71.0027462,196.582689 69.3512032,200.402595 L66.0088228,208.121821 L66.0088228,208.121821 C65.5246658,209.233788 65.0426798,210.348357 64.5606939,211.460324 C64.2958187,212.074085 64.0613391,212.68958 63.7486995,213.255428 C63.8140882,213.659442 63.8544753,214.013523 63.8879615,214.207598 L63.8941637,214.242085 C64.2133166,215.961092 64.4977317,217.68682 64.8798467,219.393036 C64.9623488,219.75726 64.9645199,220.119316 64.8993867,220.46186 C65.3640038,220.186524 65.8394764,219.935036 66.3279757,219.70306 C67.9823599,218.703612 69.9341859,218.02286 71.5885701,217.390021 C74.4175237,216.307972 77.3333216,215.4863 80.2534617,214.688693 C79.9234533,209.346524 80.1275374,203.97422 80.8374897,198.660452 C81.0893382,196.791636 81.3802667,194.929324 81.7319862,193.075684 C82.0771923,191.261285 82.5700338,189.455124 82.7762891,187.618828 C83.0449637,185.229974 82.6199419,180.947873 79.4198796,180.748875 L79.3220564,180.7441 C78.6403285,180.718084 78.1388026,180.457924 77.8153075,180.078524 Z M275.027893,217.936357 C275.436061,218.508492 275.833374,219.087348 276.222002,219.672708 C276.291478,219.618508 276.367466,219.568644 276.447797,219.527452 C275.985351,218.989788 275.509879,218.458628 275.027893,217.936357 Z M80.420637,216.891164 L79.4566651,217.157828 L79.4566651,217.157828 C79.7866735,217.149156 80.1145108,217.140484 80.4423481,217.136148 C80.4336637,217.053764 80.4271503,216.973548 80.420637,216.891164 Z M229.111132,179.794516 C229.433076,180.325986 229.774162,180.848058 230.134388,181.359094 L230.316097,181.613685 L230.993483,181.897693 C231.091182,181.9365 231.175856,181.986364 231.251844,182.042949 C231.351715,182.081756 231.453757,182.118612 231.553628,182.155685 C230.69387,181.409893 229.897073,180.61402 229.111132,179.794516 Z M193.018634,77.5689804 C192.93179,80.2640212 192.825406,82.9564604 192.71685,85.6491164 C192.354275,94.6812212 191.831038,103.717228 191.644323,112.75562 L191.632306,113.36603 C191.485338,121.303489 191.713744,129.320604 193.997804,136.987356 C195.13593,140.811868 196.880259,144.270287 198.875325,147.706073 L199.579342,148.913446 C201.402362,152.04966 203.206116,155.320848 203.978387,158.877652 C204.33662,160.523164 204.41478,162.34862 204.206353,164.163236 C204.330107,164.3757 204.371358,164.6467 204.273658,164.958892 L204.102754,165.509489 C203.754453,166.643389 203.413899,167.951383 203.921938,169.034949 C203.980558,169.160693 204.050034,169.277548 204.126022,169.390284 L205.312698,169.920872 C205.906244,170.187068 206.499478,170.456073 207.089585,170.734444 C208.70706,171.499748 210.307167,172.306244 211.898589,173.12358 C212.161293,173.017348 212.471761,173.013012 212.790914,173.173444 C216.492653,175.033588 220.185707,176.930588 223.850538,178.87962 L224.434566,179.133493 L224.434566,179.133493 C224.395486,179.057613 224.360748,178.983684 224.323839,178.908021 C224.106728,178.827588 223.904815,178.712684 223.724613,178.563092 C222.12536,177.23016 221.786851,175.004257 221.16644,173.086929 L219.371542,167.664556 C218.151379,163.983292 216.933388,160.29986 215.719739,156.616428 C213.568171,150.08858 211.288507,143.599756 209.073977,137.09142 L208.844189,136.41369 C206.783162,130.312629 204.924447,124.168514 204.206353,117.744188 C203.444295,110.928213 203.778645,104.020748 203.904569,97.1807084 L203.916339,96.483669 C204.007054,90.7811626 203.982431,84.8407925 205.092165,79.2188284 C204.849001,79.2275004 204.603666,79.2342212 204.358331,79.2385572 C202.360912,79.2667412 200.387375,79.1431652 198.407324,78.8697804 C197.354337,78.7247412 196.303521,78.5554204 195.267902,78.3128212 C194.749007,78.1914132 194.22577,78.0676204 193.713389,77.9180284 C193.398578,77.8250212 193.229232,77.6949412 193.018634,77.5689804 Z M70.7092714,118.696049 C72.472211,118.671767 74.2389332,118.74758 75.9953164,118.925249 L76.9093455,119.023199 C78.6977283,119.218286 80.432282,119.454258 81.807975,120.749145 C82.6199693,121.516617 82.2226566,122.975681 81.1479582,123.246681 C79.2634365,123.723641 77.502668,123.062401 75.6637396,122.672161 C73.961591,122.307937 72.2420736,122.045609 70.5051873,121.893849 C66.9402281,121.581657 63.375269,121.594665 59.7994543,121.551305 C59.3283239,121.546969 59.3196394,120.952937 59.6974122,120.792505 C63.1603293,119.337777 66.9662814,118.745913 70.7092714,118.696049 Z M106.434852,14.8663012 C106.222083,14.9942132 106.013657,15.1286292 105.798717,15.2541564 C106.028855,15.2519884 106.237281,15.2825572 106.434852,15.3367572 C106.43051,15.1804444 106.43051,15.0221804 106.434852,14.8663012 Z" id="ðŸ–-Ink" fill="#000000"></path>
                            </g>
                            <g id="Head" transform="translate(74.903222, 39.024000)">
                                <g id="HEAD">
                                    <path d="M84.8899991,36.3298914 C78.3784718,27.3617426 66.3892502,24.7826898 55.992153,26.9639146 C35.6659381,30.6716282 16.2462986,46.1895218 12.6547823,67.293701 C7.0515588,80.0612698 10.6296796,100.171421 26.9253502,101.673845 C29.2453708,101.804792 31.5433536,101.27038 33.8674792,101.558941 C48.0520565,103.826235 64.8137622,113.531938 77.3699175,102.085982 C77.9992917,102.537143 78.8283026,102.755243 79.5339449,102.482292 C84.878332,100.415538 85.1293903,94.4368442 85.5850546,89.522205 C86.173594,83.1719162 86.7256198,76.8181586 87.2404837,70.4617994 C87.4243483,59.4999578 91.7664467,45.8018834 84.8899991,36.3298914 L84.8899991,36.3298914 Z" id="âœ‹-Skin" fill="#EDB98A"></path>
                                    <path d="M45.4819984,13.4776972 C54.039782,13.0224172 69.8079857,16.9447628 77.2738395,21.5433076 C89.4382414,29.0356988 90.3811142,43.9814572 89.8849794,46.5657132 C89.6964915,47.5519364 89.0941968,48.4646644 88.1517574,48.1613612 C88.951206,54.9513204 88.8883767,58.8322572 89.0227014,65.6614572 L89.1149794,70.2208335 C89.1748398,73.260514 89.226355,76.3004836 89.2393542,79.3413204 C89.5470011,79.2266332 89.8503149,79.3673364 89.9629743,79.6624012 C89.9911392,79.7339452 89.8936455,79.7729692 89.8459819,79.7317772 C89.30435,79.2589364 89.6899919,80.3364324 89.8763132,80.5556172 C90.13413,80.8569692 90.5631025,81.1409772 90.8642498,81.3989692 L91.6821139,82.1075529 L91.6821139,82.1075529 L92.499978,82.8146732 C93.5565213,83.7268592 94.5784753,84.6408669 95.5641714,85.6234928 L95.8320973,85.8932332 C97.6281486,87.7186892 99.8791707,89.4853924 100.997099,91.8465612 C102.065197,94.1010644 101.735885,96.6571364 99.9614987,98.4544084 C99.3158735,99.1069764 98.561922,99.6058332 97.7429746,99.9830652 C99.2010476,102.385209 99.4133673,105.561329 97.892465,108.032632 C96.3693961,110.513041 93.440251,111.811673 90.6194322,111.612217 C90.5327711,111.965601 90.3984464,112.310313 90.2207911,112.637464 C89.1022241,114.694416 86.8773193,114.961431 84.767455,114.85135 L84.6853134,114.846873 C79.9362851,114.573488 75.3670786,113.383473 71.2073458,111.070217 C69.7644385,111.167777 68.4775212,109.981664 68.1958726,108.680864 C67.437588,108.652897 66.6749703,108.589808 65.8971869,108.50092 C63.5898352,108.234473 61.2239871,107.738001 59.1896178,106.565113 C58.8776379,106.385169 59.0227952,105.910377 59.3694396,105.901488 C61.847947,105.84512 64.328621,106.016609 66.8027954,105.747777 C69.0733162,105.502576 71.4933275,104.876241 73.6100248,104.024217 C77.4144471,102.489273 80.6772375,99.8855052 82.4776219,96.2777364 C84.8088054,91.6078644 84.5964857,85.9994652 84.8499695,80.9263452 C85.1307514,75.3107916 85.4764642,69.7005062 85.8460435,64.0907477 L86.0253874,61.4017499 C86.3843353,56.1604587 86.681419,53.3565571 87.5906267,47.9163772 C84.8499695,48.1613612 73.4651241,44.0609294 69.9247615,37.3536644 C63.2052474,51.6223062 29.1613125,45.7827392 27.6514771,67.7492412 C27.6386736,67.9355188 27.3438302,67.8836572 27.3329975,67.7056644 L27.3049129,67.2050411 C27.2913119,66.9576602 27.2789748,66.7142179 27.2706096,66.4726545 L27.2636687,66.2316412 L26.7285364,66.2381452 C26.7285364,66.3051364 26.6332092,66.3292012 26.6093773,66.2576572 C26.1045764,64.8243924 23.6997309,65.2861764 22.6532981,65.6267692 C21.7108587,65.9344084 20.8225824,66.4070324 20.0253003,66.9904412 C18.4242365,68.1611612 17.1828162,69.7372972 16.771176,71.7077924 C15.9890596,75.4499772 18.3700733,79.2613212 21.5310369,81.0672652 C23.5242422,82.2054652 25.7081019,82.9404172 27.6189792,84.2303772 C29.3067041,85.3685772 30.879603,86.7018972 32.2423488,88.2173292 C37.6413354,94.2205212 40.8174647,103.326121 38.2631287,111.250161 C38.0681413,111.855033 37.5525077,112.546408 36.8700516,112.644185 C35.7412907,112.806785 34.6125299,112.642017 33.9799039,111.566689 C33.7329198,111.146097 33.6159273,110.666969 33.6419256,110.194345 C33.204287,111.69872 31.7852115,113.186185 30.4766289,113.745529 C28.6935768,114.508665 26.6852058,114.280808 25.1123069,113.296536 L24.913591,113.443651 C22.3556521,115.32771 19.4982034,117.044896 16.220878,116.698345 C13.8463639,116.446857 11.5151803,115.237113 10.2022646,113.329273 C8.45604347,114.311377 6.5906633,115.093808 4.66678688,115.627136 L4.46203859,115.683417 C1.81512328,116.404588 -1.56115693,117.06572 -4.03182101,115.60112 C-6.40416861,114.194088 -7.19278462,111.122032 -6.63598705,108.557288 C-6.5688247,108.251817 -6.48433013,107.954801 -6.38033681,107.666457 C-8.16555547,107.761632 -9.94860759,107.590577 -11.6428321,107.065921 C-13.3738876,106.530208 -15.0247815,105.500408 -15.8545615,103.831265 C-16.7905014,101.94272 -16.5413508,99.7966172 -15.8437289,97.8736012 C-14.7279672,94.7883204 -12.9340825,92.0436324 -10.7003926,89.6525452 C-8.55236846,87.3511839 -5.96132818,85.3987297 -3.26851393,83.7712194 L-2.81455399,83.4993784 C-0.390547733,82.0526444 2.53269064,80.3573186 5.39690665,80.4688972 C5.38824054,80.4320412 5.38174096,80.3971364 5.3774079,80.3604972 C4.9441024,77.1670332 4.99393254,73.9106972 4.89210574,70.6912172 C4.79894506,67.7297292 4.69278521,64.7682412 4.62345633,61.8045852 C4.5107969,56.7659364 4.54762787,51.7060412 5.2040857,46.7022972 C5.7868816,42.2622332 6.83548091,37.9325204 8.74852468,33.8675204 C10.7568957,29.5967772 13.7813681,25.9523692 17.5164615,23.0862732 C25.3549579,17.0700732 35.7087928,13.9980172 45.4819984,13.4776972 Z M18.8575203,72.6575065 C19.7111321,71.0466825 21.6545073,70.5393705 23.3595644,70.8298825 C25.7492443,71.2374665 27.3741399,73.3276353 28.7693836,75.1249073 C30.2339562,77.0086825 27.1791524,78.7842745 26.3927029,76.9590353 L26.2063653,76.5277986 C25.5752238,75.0802554 24.8296518,73.5538759 23.5415528,72.6098105 C22.1723074,71.6081945 20.2397649,71.4607705 19.0308425,72.7919225 C18.9441814,72.8894825 18.7990241,72.7637385 18.8575203,72.6575065 Z" id="ðŸ–-Ink" fill="#000000"></path>
                                </g>
                                <g id="FACE" transform="translate(34.520615, 40.324800)" fill="#000000">
                                    <path d="M31.8255252,52.2328768 C30.3660467,51.6383352 29.0638228,50.6466006 28.1117715,49.3797238 C27.7807782,48.9393054 27.6949573,48.4742304 27.7643924,48.0488599 C27.8424674,47.5705608 28.125842,47.1370679 28.5123016,46.8462942 C28.8999582,46.5546197 29.3848673,46.4107731 29.8536734,46.484102 C30.2610383,46.5478205 30.6665507,46.7705431 30.9874834,47.2324616 L31.0545343,47.3248344 C31.6205453,48.0894776 32.3581096,48.7168582 33.1985127,49.1212413 C34.0085246,49.5110008 34.9144411,49.6929166 35.8519168,49.5871288 C37.6373997,49.3857258 38.8680444,48.4214997 40.1760854,47.1120969 C40.3382209,46.9467815 40.5004603,46.7762837 40.6634861,46.6030414 C40.7664401,46.4459981 40.9093145,46.3450662 41.0679438,46.292109 C41.2440736,46.2333093 41.4433174,46.2366362 41.6258096,46.3002308 C41.8018241,46.3615681 41.9591723,46.4777994 42.0646785,46.6324958 C42.1649536,46.7795222 42.2218066,46.9611533 42.2033592,47.1700741 C42.0836319,48.5270558 41.3731691,49.7381041 40.3639863,50.6890329 C39.2431599,51.7451607 37.7574227,52.475797 36.3586661,52.732054 C34.8176469,53.014331 33.2473894,52.8120957 31.8255252,52.2328768 L31.8255252,52.2328768 Z M37.0856282,31.2987991 C38.725114,32.293921 41.2231868,34.6143511 39.4594775,37.0813795 C37.3834229,39.2566399 34.3943731,36.7625553 32.9214211,35.6345779 C31.555631,34.7603891 30.0210893,37.0087372 31.2882701,38.0295 C41.931852,45.8983072 46.2512429,31.5590096 37.9148573,30.1287797 C36.9969913,29.9711745 36.6560935,30.9909473 37.0856282,31.2987991 Z M18.0122275,22.1453395 C18.1933692,19.9000989 21.6177864,19.3902451 21.9584332,21.6120115 C22.2634739,23.6022355 21.9043726,25.4305099 21.0066195,27.2223619 C20.1488148,28.9342147 17.9927923,28.1355548 17.8297421,26.5767628 C17.6111801,24.4872669 17.899547,23.5420077 18.0122275,22.1453395 Z M44.0793522,21.1513332 C44.5567788,20.5269492 45.2461056,20.1007204 46.071995,20.3415852 C48.6523567,21.0945316 47.8918176,24.752598 46.9855972,26.5331764 C46.4931899,27.5001044 44.9015507,27.7453052 44.1822627,26.8939316 C43.0098644,25.5055444 42.4484159,22.7328892 43.9388815,21.3653148 C43.9792641,21.294638 44.024206,21.2233108 44.0793522,21.1513332 Z M20.9702752,12.3208524 L21.3778727,12.249613 C22.6388085,12.0318493 24.2066372,11.8226026 25.0986368,12.8348852 C25.5717213,13.371682 25.7345543,14.3693956 25.0986368,14.8832116 C23.9800821,15.7872676 22.743419,15.4369188 21.402977,15.5134492 C20.2983173,15.5767548 19.2366455,15.7593004 18.1725856,16.0630372 C15.8382104,16.7292636 13.9361027,17.9455116 11.9423744,19.2809996 C11.6807559,19.456174 11.4137096,19.1220852 11.5385483,18.8777516 C12.6894526,16.6267172 14.9198317,14.77763 17.1539017,13.6504868 C18.3462742,13.0488668 19.65111,12.5497932 20.9702752,12.3208524 Z M41.727147,11.3124912 L42.0391199,11.3762479 C45.4341327,12.0848823 49.845049,13.5004376 51.4527513,16.8303674 C51.5140121,17.3012312 51.4492842,17.4021468 51.3966488,17.4680792 L51.379124,17.4900193 C51.3357523,17.5463218 51.3011451,17.6239344 51.0967598,17.6880198 C51.0400428,17.6745258 50.9827614,17.6602337 50.9248731,17.645085 C50.1879305,17.4522359 49.6048664,17.186559 49.0403985,16.9108875 L48.428372,16.6097958 C47.7182992,16.2621313 47.0019569,15.9271202 46.2427985,15.6798023 C44.6226893,15.1521231 42.9562678,14.780406 41.2640282,14.5819175 C40.8972483,14.5389333 40.5440623,14.4153224 40.2654239,14.2034734 C40.0009402,14.0023862 39.7988916,13.7239763 39.7067688,13.3539089 C39.5873776,12.8749825 39.621688,12.512396 39.879021,12.0803343 C40.0725196,11.7558652 40.349385,11.5309657 40.6672965,11.4018208 C40.9913936,11.2701631 41.3603749,11.2391249 41.727147,11.3124912 Z" id="ðŸ–-Ink"></path>
                                </g>
                                <g id="ACCESORIES" transform="translate(10.204207, 52.248800)" fill="#000000">
                                    <path d="M79.699091,16.1369226 C79.0851017,17.8054154 78.1506569,19.542417 77.0080028,20.9466306 C72.3848456,24.8559682 67.8926063,22.691437 65.6116404,17.3930618 C64.7449341,13.648709 67.0460913,9.61536184 69.4844626,6.86091784 C73.0059996,3.33640024 78.7531393,5.18613784 80.3723516,9.37601464 C80.4707028,9.91888184 80.5301911,10.4604482 80.5586326,11.0002802 C80.5249805,12.754409 80.3132974,14.253581 79.699091,15.9201226 M35.2608547,12.7719698 C41.3512466,5.53800424 52.7452208,5.15123304 52.4545094,16.284997 C51.1461998,30.3778642 29.1157509,26.9188202 35.2608547,12.7719698 Z M81.6146595,6.73734184 C81.4012396,6.37636984 81.1643717,6.02710504 80.9057928,5.69301624 C80.810264,5.63621464 80.755335,5.13237144 80.4040497,5.09508184 C75.7085947,-0.07754936 67.4599045,2.85727224 64.4794076,8.01147544 C63.9351108,8.66317624 63.4911193,9.42609544 63.1637162,10.2321578 C60.2270757,9.69427704 56.8034556,9.79877464 54.0722019,10.9064058 C51.3639619,3.84479624 43.164773,3.21434184 37.7615368,6.23154744 C34.4008789,7.88204584 32.2217379,11.3384882 28.9533521,13.2372226 C21.2700183,13.7894122 13.0239335,12.070405 5.47933354,13.9949386 C-0.470804746,15.230265 4.50320343,18.2387986 5.50104462,16.2310138 C12.6142454,14.1323898 21.0414007,15.9058138 28.4268584,15.432973 C29.1947793,16.7300874 30.6674417,17.7915402 32.1351107,17.746229 C33.7202365,31.7777418 54.2120213,29.4510442 54.918934,16.9778898 C55.7207241,15.7119946 56.717914,14.5005162 58.1452003,13.7117978 C58.6916682,13.598845 59.2194645,13.4520714 59.7018847,13.224865 C60.5264715,13.1086602 61.7970038,13.4577082 62.5555889,14.1432298 C65.1541879,29.7129386 80.1250624,27.8996234 82.8005186,14.2598682 C82.8537108,14.2056682 83.0024317,14.0023098 83.1166319,13.6760258 C84.0324053,12.4669322 86.2742913,12.0175058 85.9160585,9.97633384 C85.5971227,7.93472824 83.0152412,7.95900984 81.6146595,6.73734184 Z" id="ðŸ–-Ink"></path>
                                </g>
                            </g>
                        </g>
                    </g>
                </g>
            </g>
        </g>
    </g>
</svg>