<?xml version="1.0" encoding="UTF-8"?>
<svg width="123px" height="140px" viewBox="0 0 123 140" version="1.1" xmlns="http://www.w3.org/2000/svg" xmlns:xlink="http://www.w3.org/1999/xlink">
    <title>Shape</title>
    <g id="Page-1" stroke="none" stroke-width="1" fill="none" fill-rule="evenodd">
        <g id="Home-Page" transform="translate(-1176.000000, -1376.000000)" fill="#5A5A5A" fill-rule="nonzero">
            <g id="user-solid" transform="translate(1176.000000, 1376.000000)">
                <path d="M61.25,70 C80.5820312,70 96.25,54.3320312 96.25,35 C96.25,15.6679688 80.5820312,0 61.25,0 C41.9179688,0 26.25,15.6679688 26.25,35 C26.25,54.3320312 41.9179688,70 61.25,70 Z M85.75,78.75 L81.1835938,78.75 C75.1132813,81.5390625 68.359375,83.125 61.25,83.125 C54.140625,83.125 47.4140625,81.5390625 41.3164063,78.75 L36.75,78.75 C16.4609375,78.75 0,95.2109375 0,115.5 L0,126.875 C0,134.121094 5.87890625,140 13.125,140 L109.375,140 C116.621094,140 122.5,134.121094 122.5,126.875 L122.5,115.5 C122.5,95.2109375 106.039062,78.75 85.75,78.75 Z" id="Shape"></path>
            </g>
        </g>
    </g>
</svg>